<svg width="19" height="21" viewBox="0 0 19 21" fill="none" xmlns="http://www.w3.org/2000/svg">
<path d="M3.5 20.5C2.66667 20.5 1.95833 20.2083 1.375 19.625C0.791667 19.0417 0.5 18.3333 0.5 17.5V16.5C0.5 15.95 0.696 15.4793 1.088 15.088C1.48 14.6967 1.95067 14.5007 2.5 14.5H3.5V2.5C3.5 1.95 3.696 1.47933 4.088 1.088C4.48 0.696667 4.95067 0.500667 5.5 0.5H16.5C17.05 0.5 17.521 0.696 17.913 1.088C18.305 1.48 18.5007 1.95067 18.5 2.5V17.5C18.5 18.3333 18.2083 19.0417 17.625 19.625C17.0417 20.2083 16.3333 20.5 15.5 20.5H3.5ZM15.5 18.5C15.7833 18.5 16.021 18.404 16.213 18.212C16.405 18.02 16.5007 17.7827 16.5 17.5V2.5H5.5V14.5H12.5C13.05 14.5 13.521 14.696 13.913 15.088C14.305 15.48 14.5007 15.9507 14.5 16.5V17.5C14.5 17.7833 14.596 18.021 14.788 18.213C14.98 18.405 15.2173 18.5007 15.5 18.5ZM7.5 7.5C7.21667 7.5 6.97933 7.404 6.788 7.212C6.59667 7.02 6.50067 6.78267 6.5 6.5C6.49933 6.21733 6.59533 5.98 6.788 5.788C6.98067 5.596 7.218 5.5 7.5 5.5H14.5C14.7833 5.5 15.021 5.596 15.213 5.788C15.405 5.98 15.5007 6.21733 15.5 6.5C15.4993 6.78267 15.4033 7.02033 15.212 7.213C15.0207 7.40567 14.7833 7.50133 14.5 7.5H7.5ZM7.5 10.5C7.21667 10.5 6.97933 10.404 6.788 10.212C6.59667 10.02 6.50067 9.78267 6.5 9.5C6.49933 9.21733 6.59533 8.98 6.788 8.788C6.98067 8.596 7.218 8.5 7.5 8.5H14.5C14.7833 8.5 15.021 8.596 15.213 8.788C15.405 8.98 15.5007 9.21733 15.5 9.5C15.4993 9.78267 15.4033 10.0203 15.212 10.213C15.0207 10.4057 14.7833 10.5013 14.5 10.5H7.5Z" fill="url(#paint0_linear_303_1832)"/>
<defs>
<linearGradient id="paint0_linear_303_1832" x1="9.5" y1="0.5" x2="9.5" y2="20.5" gradientUnits="userSpaceOnUse">
<stop stop-color="#F2DC4C"/>
<stop offset="1" stop-color="#666666"/>
</linearGradient>
</defs>
</svg>
