<svg width="12" height="15" viewBox="0 0 12 15" fill="none" xmlns="http://www.w3.org/2000/svg">
<path d="M5.99984 11.3332C6.35346 11.3332 6.6926 11.1927 6.94265 10.9426C7.19269 10.6926 7.33317 10.3535 7.33317 9.99984C7.33317 9.64622 7.19269 9.30708 6.94265 9.05703C6.6926 8.80698 6.35346 8.6665 5.99984 8.6665C5.64622 8.6665 5.30708 8.80698 5.05703 9.05703C4.80698 9.30708 4.6665 9.64622 4.6665 9.99984C4.6665 10.3535 4.80698 10.6926 5.05703 10.9426C5.30708 11.1927 5.64622 11.3332 5.99984 11.3332ZM9.99984 5.33317C10.3535 5.33317 10.6926 5.47365 10.9426 5.7237C11.1927 5.97374 11.3332 6.31288 11.3332 6.6665V13.3332C11.3332 13.6868 11.1927 14.0259 10.9426 14.276C10.6926 14.526 10.3535 14.6665 9.99984 14.6665H1.99984C1.64622 14.6665 1.30708 14.526 1.05703 14.276C0.80698 14.0259 0.666504 13.6868 0.666504 13.3332V6.6665C0.666504 6.31288 0.80698 5.97374 1.05703 5.7237C1.30708 5.47365 1.64622 5.33317 1.99984 5.33317H2.6665V3.99984C2.6665 3.11578 3.01769 2.26794 3.64281 1.64281C4.26794 1.01769 5.11578 0.666504 5.99984 0.666504C6.43758 0.666504 6.87103 0.752723 7.27545 0.920239C7.67987 1.08775 8.04733 1.33329 8.35686 1.64281C8.66639 1.95234 8.91192 2.31981 9.07944 2.72423C9.24695 3.12864 9.33317 3.5621 9.33317 3.99984V5.33317H9.99984ZM5.99984 1.99984C5.4694 1.99984 4.9607 2.21055 4.58562 2.58562C4.21055 2.9607 3.99984 3.4694 3.99984 3.99984V5.33317H7.99984V3.99984C7.99984 3.4694 7.78912 2.9607 7.41405 2.58562C7.03898 2.21055 6.53027 1.99984 5.99984 1.99984Z" fill="url(#paint0_linear_303_1245)"/>
<defs>
<linearGradient id="paint0_linear_303_1245" x1="5.99984" y1="0.666504" x2="5.99984" y2="14.6665" gradientUnits="userSpaceOnUse">
<stop stop-color="#F2DC4C"/>
<stop offset="1" stop-color="#666666"/>
</linearGradient>
</defs>
</svg>
