<svg width="331" height="378" viewBox="0 0 331 378" fill="none" xmlns="http://www.w3.org/2000/svg">
<g clip-path="url(#clip0_129_365)">
<path d="M167.668 50.2329L47.6864 83.5592C21.9508 187.952 32.132 298.835 108.043 348.234C202.972 302.611 257.248 193.168 273.321 88.5392L167.668 50.2329Z" fill="url(#paint0_linear_129_365)"/>
<path d="M282.724 160.455C282.96 159.652 283.196 158.826 283.431 158C284.068 155.829 284.681 153.634 285.27 151.462C285.553 150.471 285.812 149.456 286.071 148.441C286.283 147.615 286.519 146.766 286.754 145.94C286.967 145.137 287.155 144.311 287.344 143.509C287.886 141.361 288.404 139.213 288.923 137.065C289.253 135.649 289.606 134.209 289.912 132.793C290.407 130.598 290.879 128.403 291.35 126.208C291.633 124.839 291.939 123.494 292.199 122.125C292.67 119.741 293.141 117.357 293.565 114.95C293.778 113.793 294.013 112.637 294.202 111.48C294.838 107.94 295.427 104.423 295.969 100.907L273.274 88.5391C272.732 92.0558 272.143 95.5961 271.506 99.1128C271.294 100.269 271.059 101.426 270.846 102.582C270.399 104.966 269.951 107.35 269.48 109.757C269.197 111.126 268.914 112.472 268.608 113.841C268.136 116.036 267.665 118.231 267.17 120.426C266.84 121.842 266.51 123.281 266.18 124.698C265.662 126.845 265.143 128.993 264.601 131.141C264.177 132.793 263.776 134.445 263.328 136.097C263.069 137.112 262.786 138.104 262.527 139.119C261.938 141.314 261.325 143.485 260.689 145.656C260.453 146.482 260.218 147.285 259.982 148.111C259.11 151.061 258.214 154.011 257.272 156.938C257.107 157.457 256.942 157.953 256.777 158.472C256.046 160.762 255.268 163.051 254.491 165.341C253.383 168.621 252.228 171.878 251.05 175.135C250.908 175.513 250.767 175.914 250.626 176.292C249.282 179.903 247.892 183.491 246.454 187.078C245.889 188.471 245.323 189.84 244.734 191.209C243.98 193.026 243.225 194.843 242.448 196.637C241.835 198.077 241.199 199.493 240.562 200.909C239.785 202.679 238.983 204.449 238.182 206.196C237.428 207.848 236.65 209.477 235.872 211.105C235.26 212.38 234.647 213.678 234.011 214.952C233.162 216.652 232.314 218.351 231.442 220.05C230.829 221.278 230.193 222.505 229.556 223.709C228.307 226.116 227.011 228.476 225.715 230.837C225.503 231.191 225.314 231.568 225.126 231.922C223.594 234.66 222.038 237.374 220.436 240.065C220.059 240.726 219.658 241.363 219.257 242.024C218.079 244.007 216.877 245.966 215.652 247.901C215.11 248.751 214.568 249.6 214.025 250.45C212.8 252.362 211.551 254.274 210.278 256.162C209.878 256.775 209.453 257.389 209.053 258.003C207.427 260.41 205.753 262.794 204.056 265.131C201.629 268.506 199.131 271.81 196.586 275.043C195.902 275.917 195.219 276.743 194.535 277.616C192.579 280.071 190.576 282.478 188.549 284.862C187.654 285.924 186.758 286.986 185.839 288.025C185.32 288.615 184.825 289.181 184.307 289.771C182.563 291.73 180.795 293.666 179.004 295.577C178.769 295.813 178.557 296.073 178.344 296.309C176.341 298.41 174.314 300.463 172.24 302.493C171.698 303.012 171.156 303.555 170.614 304.074C168.941 305.703 167.244 307.308 165.524 308.865C165.005 309.337 164.51 309.809 163.992 310.281C161.847 312.217 159.679 314.105 157.487 315.97C156.945 316.442 156.38 316.89 155.838 317.339C154.094 318.778 152.35 320.194 150.558 321.587C149.804 322.177 149.027 322.767 148.272 323.357C146.717 324.537 145.138 325.717 143.583 326.85C142.593 327.558 141.603 328.29 140.589 328.998C138.987 330.131 137.361 331.217 135.735 332.302C134.792 332.94 133.873 333.577 132.906 334.167C131.799 334.899 130.644 335.583 129.513 336.291C127.675 337.424 125.836 338.58 123.974 339.666C122.749 340.374 121.523 341.059 120.274 341.743C118.483 342.758 116.669 343.749 114.854 344.693C112.568 345.897 110.305 347.077 107.972 348.187L130.668 360.554C132.435 359.704 134.203 358.831 135.947 357.934C136.489 357.651 137.007 357.344 137.549 357.061C139.388 356.093 141.179 355.102 142.97 354.111C144.195 353.426 145.444 352.742 146.67 352.034C148.532 350.948 150.37 349.792 152.208 348.659C153.08 348.116 153.952 347.62 154.801 347.077C155.06 346.912 155.319 346.723 155.602 346.558C156.545 345.944 157.487 345.307 158.406 344.67C160.033 343.584 161.659 342.475 163.261 341.366C164.275 340.657 165.265 339.926 166.254 339.218C167.15 338.581 168.045 337.943 168.917 337.306C169.601 336.787 170.261 336.244 170.944 335.725C171.722 335.135 172.476 334.545 173.254 333.954C175.021 332.562 176.789 331.146 178.509 329.682C179.051 329.234 179.617 328.786 180.159 328.314C180.348 328.172 180.513 328.03 180.678 327.889C182.704 326.166 184.684 324.396 186.664 322.625C187.182 322.153 187.677 321.681 188.196 321.209C189.185 320.312 190.175 319.416 191.165 318.495C191.872 317.811 192.579 317.103 193.286 316.418C193.828 315.899 194.37 315.356 194.912 314.837C196.892 312.878 198.872 310.895 200.804 308.865C200.875 308.795 200.946 308.724 201.016 308.629C201.228 308.393 201.464 308.157 201.676 307.921C203.467 306.009 205.235 304.074 206.979 302.115C207.497 301.549 208.016 300.959 208.511 300.392C208.958 299.873 209.406 299.377 209.854 298.882C210.325 298.339 210.75 297.772 211.221 297.229C213.248 294.846 215.251 292.438 217.207 289.984C217.655 289.441 218.103 288.922 218.55 288.355C218.786 288.048 219.022 287.718 219.257 287.411C221.803 284.154 224.301 280.85 226.728 277.498C226.799 277.38 226.893 277.262 226.988 277.168C228.59 274.925 230.169 272.66 231.725 270.37C232.149 269.757 232.549 269.119 232.974 268.506C233.751 267.349 234.529 266.216 235.283 265.06C235.778 264.304 236.226 263.549 236.721 262.818C237.263 261.968 237.805 261.118 238.347 260.268C239.573 258.309 240.774 256.351 241.953 254.392C242.353 253.731 242.754 253.093 243.131 252.433C243.249 252.22 243.39 252.008 243.508 251.795C244.969 249.317 246.407 246.815 247.821 244.29C248.033 243.936 248.222 243.558 248.41 243.204C249.565 241.127 250.696 239.05 251.804 236.95C251.969 236.666 252.087 236.359 252.252 236.076C252.888 234.873 253.501 233.645 254.137 232.418C255.009 230.719 255.858 229.043 256.706 227.343C257.342 226.069 257.955 224.794 258.568 223.496C259.133 222.34 259.699 221.207 260.241 220.027C260.477 219.555 260.665 219.059 260.901 218.587C261.702 216.84 262.504 215.07 263.281 213.3C263.918 211.884 264.554 210.444 265.167 209.028C265.944 207.234 266.699 205.417 267.453 203.6C267.901 202.514 268.372 201.428 268.82 200.343C268.938 200.059 269.032 199.753 269.15 199.469C270.587 195.882 271.978 192.294 273.321 188.683C273.462 188.305 273.604 187.904 273.722 187.527C274.924 184.269 276.055 181.012 277.186 177.732C277.304 177.354 277.445 176.976 277.587 176.622C278.223 174.711 278.859 172.799 279.472 170.863C279.637 170.344 279.802 169.849 279.967 169.329C280.91 166.403 281.805 163.452 282.654 160.502L282.724 160.455Z" fill="url(#paint1_linear_129_365)"/>
<path d="M164.133 67.9111L59.0931 97.0834C48.6528 145.09 47.0031 190.69 54.3089 229.704C62.6518 274.123 82.0006 307.568 111.837 329.211C150.04 309.078 182.539 276.79 208.51 233.126C231.324 194.796 247.844 149.504 256.612 101.473L164.133 67.9111Z" fill="url(#paint2_linear_129_365)"/>
<path d="M199.649 82.9692C177.59 129.584 152.538 175.018 120.368 215.425C104.578 235.274 87.2327 253.684 68.7559 270.89C78.8191 294.185 93.266 312.925 112.002 326.803C149.38 306.812 181.243 274.949 206.743 232.088C229.061 194.584 245.464 149.905 254.255 102.819L199.626 82.9928L199.649 82.9692Z" fill="url(#paint3_linear_129_365)"/>
<path d="M185.391 144.901L197.104 163.334L119.803 235.675L116.975 233.952L104.508 166.851L107.336 168.574L127.038 199.517L182.563 143.178L185.391 144.901Z" fill="url(#paint4_linear_129_365)"/>
<path d="M182.563 143.178L194.276 161.588L116.975 233.952L85.5596 184.576L104.508 166.851L124.21 197.794L182.563 143.178Z" fill="url(#paint5_linear_129_365)"/>
</g>
<g clip-path="url(#clip1_129_365)">
<path d="M174.807 344.049L176.069 344.403C177.079 344.672 177.668 345.716 177.398 346.726L177.045 348.005C176.776 349.015 175.732 349.604 174.722 349.334L173.46 348.981C172.451 348.712 171.861 347.668 172.131 346.658L172.484 345.396C172.753 344.386 173.797 343.797 174.807 344.066V344.049ZM167.486 336.644L167.132 337.923C166.863 338.933 167.452 339.976 168.462 340.246L169.724 340.599C170.734 340.868 171.777 340.279 172.047 339.269L172.4 338.007C172.669 336.997 172.08 335.954 171.071 335.684L169.808 335.331C168.799 335.061 167.755 335.651 167.486 336.66V336.644ZM169.219 342.518L167.94 342.164C166.93 341.895 165.887 342.484 165.618 343.494L165.264 344.773C164.995 345.783 165.584 346.827 166.594 347.096L167.856 347.449C168.866 347.719 169.909 347.13 170.179 346.12L170.532 344.841C170.801 343.831 170.212 342.787 169.202 342.518H169.219ZM177.954 337.536L176.692 337.182C175.682 336.913 174.638 337.502 174.369 338.512L174.016 339.774C173.746 340.784 174.335 341.828 175.345 342.097L176.607 342.45C177.617 342.72 178.661 342.131 178.93 341.121L179.283 339.858C179.553 338.849 178.963 337.805 177.954 337.536Z" fill="#F4BB56"/>
<path d="M122.804 30.8014L122.064 29.7073C121.475 28.8489 121.693 27.6708 122.552 27.0817L123.646 26.3411C124.504 25.752 125.682 25.9708 126.271 26.8292L127.011 27.9232C127.6 28.7816 127.382 29.9598 126.523 30.5657L125.429 31.3063C124.571 31.8954 123.393 31.6766 122.804 30.8182V30.8014ZM123.612 41.1695L124.706 40.4289C125.564 39.8398 125.783 38.6616 125.194 37.7864L124.453 36.6924C123.864 35.834 122.686 35.6152 121.811 36.2042L120.717 36.9448C119.859 37.5339 119.64 38.7121 120.229 39.5705L120.97 40.6646C121.559 41.523 122.737 41.7418 123.595 41.1527L123.612 41.1695ZM126.086 35.5815L126.826 36.6755C127.415 37.5339 128.593 37.7527 129.452 37.1636L130.546 36.4231C131.404 35.834 131.623 34.6558 131.034 33.7805L130.293 32.6865C129.704 31.8281 128.526 31.6093 127.651 32.1984L126.557 32.939C125.699 33.5281 125.48 34.7063 126.069 35.5647L126.086 35.5815ZM116.207 33.73L116.947 34.8241C117.537 35.6825 118.715 35.9013 119.573 35.3122L120.667 34.5716C121.525 33.9825 121.744 32.8043 121.155 31.9291L120.414 30.835C119.825 29.9766 118.647 29.7578 117.772 30.3469L116.678 31.0875C115.82 31.6766 115.601 32.8548 116.19 33.7132L116.207 33.73Z" fill="#F4BB56"/>
<path d="M23.9144 206.605L23.0393 205.343C22.2652 204.215 22.5513 202.666 23.6788 201.892L24.941 201.017C26.0686 200.243 27.6169 200.529 28.3911 201.657L29.2662 202.919C30.0403 204.047 29.7542 205.595 28.6267 206.369L27.3645 207.245C26.2369 208.019 24.6886 207.733 23.9144 206.605ZM27.9367 201.976C27.3308 201.101 26.1359 200.882 25.244 201.471L23.9818 202.347C23.1066 202.953 22.871 204.148 23.4769 205.023L24.3352 206.285C24.941 207.16 26.1359 207.379 27.0111 206.79L28.2733 205.915C29.1484 205.309 29.384 204.114 28.7781 203.222L27.903 201.96L27.9367 201.976ZM19.2191 199.771L18.3439 198.509C17.5698 197.381 17.8559 195.833 18.9834 195.059L20.2456 194.183C21.3732 193.409 22.9215 193.695 23.6957 194.823L24.5708 196.085C25.3449 197.213 25.0588 198.762 23.9313 199.536L22.6691 200.411C21.5415 201.185 19.9932 200.899 19.2191 199.771ZM23.2581 195.143C22.6522 194.268 21.4405 194.032 20.5654 194.638L19.3032 195.513C18.4281 196.119 18.2093 197.314 18.7983 198.206L19.6734 199.469C20.2793 200.344 21.491 200.579 22.3493 199.973L23.6115 199.098C24.4866 198.492 24.7223 197.28 24.1164 196.405L23.2413 195.143H23.2581ZM30.7303 201.909L29.8552 200.647C29.0811 199.519 29.3672 197.971 30.4947 197.196L31.7569 196.321C32.8845 195.547 34.4328 195.833 35.207 196.961L36.0821 198.223C36.8562 199.351 36.5701 200.899 35.4426 201.673L34.1804 202.549C33.0528 203.323 31.5045 203.037 30.7303 201.909ZM34.7694 197.28C34.1635 196.405 32.9686 196.17 32.0767 196.776L30.8145 197.651C29.9394 198.257 29.7206 199.452 30.3096 200.327L31.1847 201.589C31.7906 202.464 32.9855 202.683 33.8606 202.094L35.1228 201.219C35.9979 200.613 36.2335 199.418 35.6277 198.543L34.7526 197.28H34.7694ZM26.0518 195.076L25.1935 193.813C24.4193 192.685 24.7054 191.137 25.833 190.363L27.0952 189.488C28.2228 188.713 29.7711 188.999 30.5452 190.127L31.4203 191.389C32.1945 192.517 31.9084 194.066 30.7808 194.84L29.5186 195.698C28.3911 196.473 26.8428 196.186 26.0686 195.059L26.0518 195.076ZM30.0908 190.447C29.485 189.572 28.2901 189.336 27.3981 189.942L26.1359 190.8C25.2608 191.406 25.042 192.601 25.631 193.477L26.4893 194.739C27.0952 195.614 28.2901 195.85 29.182 195.244L30.4442 194.369C31.3194 193.763 31.555 192.568 30.9491 191.676L30.074 190.413L30.0908 190.447Z" fill="#F4BB56"/>
<path d="M292.679 178.16L292.141 177.369C291.653 176.662 291.838 175.686 292.545 175.214L293.336 174.676C294.043 174.188 295.019 174.373 295.49 175.08L296.028 175.871C296.516 176.578 296.331 177.537 295.625 178.025L294.834 178.564C294.127 179.052 293.151 178.867 292.679 178.16ZM295.204 175.265C294.834 174.709 294.076 174.575 293.521 174.962L292.73 175.5C292.174 175.871 292.04 176.628 292.41 177.184L292.949 177.975C293.319 178.53 294.076 178.665 294.632 178.278L295.423 177.739C295.978 177.369 296.113 176.611 295.742 176.056L295.204 175.265ZM289.751 173.885L289.213 173.094C288.724 172.387 288.91 171.41 289.616 170.939L290.407 170.4C291.114 169.912 292.09 170.098 292.562 170.804L293.1 171.596C293.588 172.302 293.403 173.279 292.696 173.75L291.905 174.289C291.198 174.777 290.222 174.591 289.751 173.885ZM292.275 170.99C291.905 170.434 291.148 170.3 290.593 170.67L289.802 171.208C289.246 171.579 289.112 172.336 289.482 172.892L290.02 173.683C290.391 174.238 291.148 174.373 291.703 174.002L292.494 173.464C293.05 173.094 293.184 172.336 292.814 171.781L292.275 170.99ZM296.954 175.231L296.416 174.44C295.927 173.733 296.113 172.774 296.819 172.286L297.61 171.747C298.317 171.259 299.293 171.444 299.765 172.151L300.303 172.942C300.791 173.649 300.606 174.608 299.899 175.096L299.108 175.635C298.401 176.123 297.442 175.938 296.954 175.231ZM299.478 172.336C299.108 171.781 298.351 171.646 297.795 172.033L297.005 172.572C296.449 172.942 296.315 173.699 296.685 174.255L297.223 175.046C297.594 175.601 298.351 175.736 298.906 175.349L299.697 174.81C300.253 174.44 300.387 173.683 300.017 173.127L299.478 172.336ZM294.026 170.956L293.487 170.165C292.999 169.458 293.184 168.482 293.891 168.01L294.682 167.472C295.389 166.984 296.365 167.169 296.836 167.876L297.375 168.667C297.863 169.374 297.678 170.35 296.971 170.821L296.18 171.36C295.473 171.848 294.514 171.663 294.026 170.956ZM296.55 168.061C296.18 167.505 295.423 167.371 294.867 167.741L294.076 168.28C293.521 168.65 293.386 169.407 293.773 169.963L294.312 170.754C294.682 171.309 295.439 171.444 295.995 171.074L296.786 170.535C297.341 170.165 297.476 169.407 297.105 168.852L296.567 168.061H296.55Z" fill="#F4BB56"/>
<path d="M260.768 343.914L257.164 342.929C254.307 342.148 252.62 339.191 253.401 336.334L254.386 332.73C255.167 329.872 258.123 328.185 260.981 328.966L264.584 329.952C267.442 330.733 269.128 333.689 268.347 336.547L267.362 340.151C266.581 343.008 263.625 344.695 260.768 343.914Z" fill="#F4BB56"/>
<path d="M19.7685 171.157L20.6738 172.475C21.3981 173.53 21.1333 174.957 20.079 175.682L18.7613 176.587C17.7209 177.302 16.2796 177.047 15.5553 175.992L14.65 174.674C13.9257 173.62 14.1906 172.192 15.2448 171.468L16.5625 170.563C17.6167 169.838 19.0442 170.103 19.7685 171.157Z" fill="#F4BB56"/>
<path d="M211.074 288.27L214.675 289.246C218.041 290.172 220.027 293.656 219.102 297.006L218.126 300.608C217.2 303.974 213.733 305.96 210.367 305.034L206.766 304.058C203.4 303.132 201.414 299.665 202.34 296.299L203.316 292.697C204.241 289.331 207.725 287.345 211.074 288.27ZM210.855 303.216C213.211 303.856 215.652 302.459 216.291 300.12L217.267 296.518C217.907 294.161 216.527 291.721 214.171 291.081L210.569 290.105C208.213 289.465 205.773 290.845 205.133 293.202L204.157 296.804C203.518 299.16 204.914 301.601 207.254 302.24L210.855 303.216Z" fill="#F4BB56"/>
<path d="M32.7501 80.2689L31.9423 79.0907C31.185 77.9798 31.4711 76.465 32.565 75.7244L33.7431 74.9165C34.8538 74.1591 36.3516 74.4452 37.1089 75.5393L37.9168 76.7175C38.6741 77.8283 38.388 79.3432 37.2941 80.0837L36.116 80.8916C35.0053 81.649 33.5075 81.3629 32.7501 80.2689ZM36.5199 75.9432C35.9982 75.169 34.9211 74.967 34.147 75.5056L32.9689 76.3135C32.1948 76.8353 32.0097 77.9125 32.5314 78.6699L33.3392 79.8481C33.8777 80.6223 34.9211 80.8243 35.6953 80.2857L36.8733 79.4778C37.6475 78.956 37.8494 77.8957 37.3109 77.1214L36.5031 75.9432H36.5199Z" fill="#F4BB56"/>
<path d="M37.6138 102.132L33.0531 105.263C32.565 105.6 32.4472 106.256 32.7838 106.727L37.9504 114.251C38.287 114.739 38.9433 114.857 39.4146 114.52L43.9753 111.39C44.4634 111.053 44.5812 110.397 44.2446 109.925L39.078 102.402C38.7414 101.914 38.085 101.796 37.6138 102.132ZM38.8424 108.562L37.5128 109.622L36.9406 108.798L38.4048 107.939C38.3711 107.653 38.5226 107.35 38.8087 107.199C39.1285 107.03 39.5324 107.098 39.768 107.367C40.0709 107.72 40.0036 108.259 39.6165 108.512C39.3809 108.68 39.078 108.697 38.8424 108.562Z" fill="#F4BB56"/>
<path d="M48.2839 101.628C46.9712 99.7089 44.329 99.2208 42.4104 100.534L40.6602 101.729L41.4848 102.941L43.2351 101.746C44.4973 100.887 46.2138 101.207 47.0721 102.452C47.9304 103.715 47.6107 105.432 46.3653 106.29L43.2351 108.428L44.0597 109.639L47.19 107.502C49.1085 106.189 49.6134 103.546 48.2839 101.628Z" fill="#F4BB56"/>
<path d="M208.364 43.7111L207.758 42.1963C208.045 41.8597 208.28 41.4894 208.482 41.1023L210.115 41.0518C210.249 41.0518 210.367 40.9508 210.401 40.7993L210.737 39.0152C210.754 38.8805 210.687 38.7459 210.552 38.6786L209.054 38.0558C209.021 37.6182 208.92 37.1806 208.785 36.7598L209.913 35.5648C210.014 35.4638 210.014 35.3123 209.946 35.1945L208.92 33.6965C208.836 33.5787 208.684 33.545 208.566 33.5787L207.052 34.2014C206.715 33.9153 206.345 33.6796 205.941 33.4777L205.89 31.845C205.89 31.7104 205.789 31.5926 205.655 31.5589L203.871 31.2223C203.736 31.1886 203.602 31.2728 203.534 31.4074L202.912 32.9054C202.474 32.9391 202.036 33.0401 201.633 33.1747L200.438 32.047C200.337 31.946 200.185 31.946 200.067 32.0133L198.57 33.0401C198.452 33.1242 198.401 33.2757 198.452 33.3935L199.075 34.9083C198.788 35.245 198.553 35.6152 198.351 36.0024L196.718 36.0529C196.584 36.0529 196.466 36.1539 196.432 36.3053L196.096 38.0895C196.096 38.0895 196.096 38.2409 196.146 38.3083C196.18 38.3588 196.23 38.3924 196.281 38.4093L197.779 39.0488C197.812 39.4865 197.913 39.9072 198.048 40.328L196.92 41.5231C196.819 41.624 196.803 41.7755 196.887 41.8933L197.913 43.3913C197.997 43.5092 198.149 43.5428 198.267 43.4923L199.781 42.8696C200.118 43.1557 200.488 43.3913 200.875 43.5933L200.926 45.226C200.926 45.226 200.943 45.3438 200.976 45.3774C201.027 45.4448 201.094 45.4953 201.161 45.5121L202.945 45.8487C203.08 45.8824 203.215 45.7982 203.282 45.6804L203.921 44.1824C204.359 44.1319 204.78 44.0478 205.2 43.9131L206.395 45.024C206.496 45.125 206.648 45.125 206.766 45.0576L208.263 44.0309C208.381 43.9468 208.432 43.7953 208.364 43.6775V43.7111ZM204.191 39.7558C203.551 40.1934 202.659 40.0419 202.222 39.3855C201.784 38.7459 201.935 37.8538 202.592 37.3994C203.248 36.9618 204.123 37.1132 204.578 37.7697C205.015 38.4093 204.847 39.3013 204.207 39.7558H204.191Z" fill="#F4BB56"/>
<path d="M254.022 272.752L255.066 273.307C255.066 273.627 255.116 273.947 255.184 274.25L254.309 275.041C254.309 275.041 254.208 275.226 254.258 275.31L254.914 276.455C254.965 276.539 255.066 276.589 255.167 276.556L256.294 276.202C256.513 276.421 256.766 276.623 257.052 276.791L256.984 277.986C256.984 278.087 257.052 278.172 257.136 278.205L258.398 278.559C258.499 278.592 258.6 278.559 258.651 278.458L259.206 277.414C259.526 277.414 259.845 277.364 260.148 277.296L260.939 278.172C260.939 278.172 261.124 278.256 261.209 278.205L262.353 277.566C262.437 277.515 262.488 277.414 262.454 277.313L262.101 276.186C262.319 275.967 262.521 275.714 262.69 275.428L263.868 275.495C263.969 275.495 264.07 275.428 264.086 275.344L264.44 274.082C264.474 273.981 264.423 273.88 264.339 273.829L263.295 273.291C263.295 272.971 263.262 272.651 263.178 272.348L264.053 271.557C264.053 271.557 264.137 271.372 264.103 271.288L263.447 270.143C263.447 270.143 263.363 270.059 263.312 270.042C263.279 270.042 263.228 270.042 263.194 270.042L262.067 270.396C261.848 270.177 261.579 269.975 261.31 269.806L261.377 268.628C261.377 268.527 261.31 268.426 261.225 268.409L259.963 268.056C259.862 268.039 259.761 268.073 259.711 268.157L259.155 269.201C258.836 269.201 258.516 269.251 258.213 269.318L257.422 268.443C257.422 268.443 257.355 268.393 257.321 268.376C257.271 268.376 257.203 268.376 257.153 268.393L256.008 269.049C255.924 269.1 255.874 269.201 255.907 269.301L256.261 270.429C256.042 270.648 255.84 270.9 255.672 271.187L254.494 271.119C254.393 271.119 254.292 271.187 254.275 271.288L253.922 272.55C253.888 272.651 253.938 272.752 254.039 272.802L254.022 272.752ZM258.179 272.988C258.331 272.432 258.903 272.112 259.442 272.264C259.997 272.415 260.317 272.988 260.165 273.526C260.014 274.065 259.442 274.401 258.903 274.25C258.348 274.098 258.028 273.526 258.179 272.988Z" fill="#F4BB56"/>
<path d="M218.125 39.8565C218.294 39.7723 218.445 39.6882 218.613 39.5872C218.765 39.4862 218.916 39.3684 219.034 39.2337L219.926 39.4357C220.128 39.4862 220.347 39.3852 220.448 39.1832L220.885 38.2743C220.969 38.0724 220.919 37.8367 220.751 37.7189L220.027 37.1635C220.061 36.7932 220.027 36.4229 219.943 36.0694L220.566 35.413C220.717 35.2615 220.734 35.0091 220.616 34.8407L220.044 34.016C219.926 33.8309 219.69 33.7635 219.488 33.8477L218.647 34.1843C218.344 33.9655 218.008 33.814 217.654 33.713L217.385 32.8378C217.317 32.6358 217.132 32.5012 216.914 32.518L215.921 32.5853C215.702 32.6022 215.534 32.7705 215.5 32.9893L215.382 33.8982C215.214 33.9823 215.062 34.0665 214.894 34.1675C214.743 34.2685 214.608 34.3863 214.473 34.521L213.581 34.319C213.379 34.2685 213.161 34.3695 213.06 34.5714L212.622 35.4803C212.555 35.6318 212.572 35.8001 212.656 35.9348C212.689 35.9684 212.723 36.0021 212.757 36.0358L213.48 36.5912C213.447 36.9615 213.48 37.3318 213.565 37.6852L212.942 38.3417C212.79 38.4931 212.774 38.7456 212.891 38.9139L213.464 39.7387C213.581 39.9238 213.817 39.9911 214.019 39.907L214.86 39.5535C215.163 39.7723 215.5 39.9238 215.853 40.0248L216.123 40.9C216.123 40.9 216.156 40.9842 216.19 41.0347C216.274 41.1693 216.442 41.2367 216.611 41.2367L217.604 41.1525C217.822 41.1357 217.991 40.9674 218.024 40.7485L218.142 39.8397L218.125 39.8565ZM215.55 37.7021C215.096 37.0457 215.264 36.1368 215.921 35.6823C216.577 35.2279 217.486 35.3962 217.94 36.0526C218.395 36.709 218.226 37.6179 217.57 38.0724C216.914 38.5268 216.005 38.3585 215.55 37.7021Z" fill="#F4BB56"/>
<path d="M78.0043 30.2626C78.2736 30.1448 78.526 29.9933 78.7785 29.825C79.0309 29.6567 79.2497 29.4547 79.4516 29.2527L80.8821 29.5894C81.2187 29.6735 81.5721 29.5052 81.7236 29.1854L82.4136 27.7211C82.5651 27.4013 82.4809 27.031 82.1948 26.829L81.0336 25.937C81.0841 25.3479 81.0336 24.7588 80.899 24.1697L81.9087 23.1093C82.1443 22.8568 82.178 22.4697 81.976 22.1836L81.0673 20.8539C80.8653 20.5678 80.4951 20.45 80.1753 20.5846L78.8121 21.14C78.3241 20.7866 77.7855 20.5341 77.2133 20.3826L76.7926 18.9856C76.6916 18.649 76.3719 18.4302 76.0353 18.4639L74.4197 18.5817C74.0662 18.6153 73.797 18.8678 73.7465 19.2213L73.5445 20.6688C73.2753 20.7866 73.0228 20.9381 72.7704 21.1064C72.5179 21.2747 72.2992 21.4598 72.0804 21.6786L70.6499 21.342C70.3133 21.2579 69.9599 21.4262 69.8252 21.746L69.1184 23.2103C69.0006 23.4459 69.0343 23.7321 69.1689 23.9509C69.2194 24.0182 69.2699 24.0687 69.3204 24.1192L70.4816 25.0113C70.4311 25.6003 70.4816 26.1894 70.6162 26.7785L69.6065 27.8389C69.3709 28.0914 69.3372 28.4785 69.5391 28.7646L70.4479 30.0943C70.6499 30.3804 71.0201 30.4983 71.3399 30.3636L72.7031 29.8082C73.1911 30.1448 73.7297 30.4141 74.3019 30.5656L74.7226 31.9626C74.7226 31.9626 74.7731 32.0972 74.8236 32.1646C74.975 32.3834 75.2275 32.5012 75.4967 32.4844L77.1124 32.3497C77.4489 32.3329 77.735 32.0636 77.7855 31.7101L77.9875 30.2626H78.0043ZM73.8475 26.7785C73.1238 25.7182 73.3931 24.2538 74.4533 23.5301C75.5136 22.8063 76.9777 23.0756 77.7014 24.136C78.425 25.1964 78.1558 26.6607 77.0955 27.3845C76.0353 28.1082 74.5711 27.8389 73.8475 26.7785Z" fill="#F4BB56"/>
<path d="M134.686 372.646L135.308 372.983C135.308 373.286 135.342 373.572 135.426 373.858L134.888 374.329C134.753 374.447 134.736 374.632 134.82 374.784L135.376 375.777C135.46 375.928 135.645 375.996 135.796 375.945L136.486 375.726C136.688 375.928 136.924 376.113 137.176 376.265L137.143 376.972C137.143 377.14 137.244 377.292 137.412 377.342L138.506 377.645C138.674 377.696 138.843 377.611 138.927 377.46L139.263 376.82C139.566 376.82 139.852 376.77 140.138 376.703L140.61 377.224C140.727 377.342 140.913 377.376 141.064 377.292L142.04 376.736C142.192 376.652 142.259 376.467 142.208 376.315L141.99 375.642C142.192 375.44 142.377 375.205 142.528 374.952L143.235 374.986C143.403 374.986 143.555 374.885 143.605 374.716L143.908 373.622C143.959 373.454 143.875 373.286 143.723 373.202L143.1 372.865C143.1 372.579 143.05 372.276 142.983 371.99L143.521 371.518C143.656 371.401 143.673 371.215 143.588 371.064L143.033 370.088C142.983 370.004 142.898 369.936 142.814 369.919C142.747 369.903 142.68 369.903 142.612 369.919L141.939 370.121C141.737 369.919 141.502 369.734 141.249 369.583L141.283 368.876C141.283 368.708 141.182 368.556 141.014 368.506L139.92 368.203C139.751 368.152 139.583 368.236 139.499 368.388L139.162 369.027C138.859 369.027 138.573 369.078 138.287 369.145L137.816 368.623C137.816 368.623 137.715 368.539 137.648 368.506C137.563 368.489 137.463 368.506 137.378 368.539L136.402 369.095C136.251 369.179 136.183 369.364 136.234 369.516L136.453 370.206C136.251 370.408 136.066 370.643 135.914 370.896L135.207 370.862C135.039 370.862 134.888 370.963 134.837 371.131L134.534 372.225C134.484 372.394 134.568 372.562 134.719 372.646H134.686ZM136.857 372.276C137.21 370.98 138.556 370.206 139.852 370.576C141.148 370.929 141.922 372.276 141.569 373.572C141.215 374.868 139.869 375.625 138.573 375.272C137.277 374.918 136.503 373.572 136.857 372.276Z" fill="#F4BB56"/>
<path d="M321.761 245.771L322.384 246.108C322.384 246.411 322.417 246.697 322.501 246.983L321.963 247.454C321.828 247.572 321.811 247.757 321.896 247.909L322.451 248.902C322.535 249.053 322.72 249.121 322.872 249.07L323.562 248.851C323.764 249.053 323.999 249.238 324.252 249.39L324.218 250.097C324.218 250.265 324.319 250.417 324.487 250.467L325.581 250.77C325.749 250.821 325.918 250.736 326.002 250.585L326.338 249.945C326.641 249.945 326.927 249.895 327.214 249.827L327.685 250.349C327.803 250.467 327.988 250.501 328.139 250.417L329.115 249.861C329.267 249.777 329.334 249.592 329.284 249.44L329.065 248.767C329.267 248.565 329.452 248.33 329.603 248.077L330.31 248.111C330.478 248.111 330.63 248.01 330.68 247.841L330.983 246.747C331.034 246.579 330.95 246.411 330.798 246.327L330.176 245.99C330.176 245.704 330.125 245.401 330.058 245.115L330.596 244.643C330.731 244.526 330.748 244.34 330.664 244.189L330.108 243.213C330.058 243.129 329.974 243.061 329.889 243.044C329.822 243.028 329.755 243.028 329.687 243.044L329.014 243.246C328.812 243.044 328.577 242.859 328.324 242.708L328.358 242.001C328.358 241.833 328.257 241.681 328.089 241.631L326.995 241.328C326.827 241.277 326.658 241.361 326.574 241.513L326.237 242.152C325.935 242.152 325.648 242.203 325.362 242.27L324.891 241.748C324.891 241.748 324.79 241.664 324.723 241.631C324.639 241.614 324.538 241.631 324.454 241.664L323.477 242.22C323.326 242.304 323.259 242.489 323.309 242.641L323.528 243.331C323.326 243.533 323.141 243.768 322.989 244.021L322.283 243.987C322.114 243.987 321.963 244.088 321.912 244.256L321.609 245.35C321.559 245.519 321.643 245.687 321.795 245.771H321.761ZM323.932 245.401C324.285 244.105 325.632 243.331 326.927 243.701C328.223 244.054 328.997 245.401 328.644 246.697C328.291 247.993 326.944 248.75 325.648 248.397C324.353 248.043 323.578 246.697 323.932 245.401Z" fill="#F4BB56"/>
<path d="M89.9363 32.2321L89.7344 31.7272C89.869 31.5589 90.0036 31.3737 90.0878 31.1717H90.6263C90.7609 31.1549 90.8619 31.0539 90.8788 30.9361L91.0302 30.0945C91.047 29.9767 90.9797 29.8421 90.8619 29.7916L90.3739 29.5896C90.357 29.3708 90.3066 29.152 90.2392 28.9332L90.6095 28.546C90.6936 28.4619 90.7105 28.3104 90.6431 28.2094L90.1551 27.5025C90.0878 27.4015 89.9531 27.351 89.8185 27.4015L89.3305 27.6035C89.1622 27.4688 88.977 27.3342 88.7751 27.2332V26.6946C88.7583 26.5599 88.6573 26.459 88.5395 26.4421L87.698 26.2906C87.5634 26.2738 87.4456 26.3411 87.3951 26.459L87.1931 26.9471C86.9743 26.9639 86.7556 27.0144 86.5536 27.0817L86.1665 26.7114C86.0824 26.6273 85.9309 26.6104 85.8299 26.6778L85.1231 27.1659C85.0221 27.2332 84.9716 27.3679 85.0221 27.5025L85.2241 28.0074C85.0726 28.1758 84.9548 28.3609 84.8707 28.5629H84.3321C84.1975 28.5797 84.0965 28.6807 84.0797 28.7985L83.9282 29.6401C83.9282 29.6401 83.9282 29.7916 83.9787 29.8421C84.0124 29.8926 84.046 29.9262 84.0965 29.943L84.5846 30.145C84.6014 30.3638 84.6519 30.5826 84.7192 30.8014L84.349 31.1886C84.2648 31.2896 84.248 31.4242 84.3321 31.5252L84.8202 32.2321C84.8875 32.3331 85.0221 32.3836 85.1568 32.3331L85.6448 32.1311C85.8131 32.2658 85.9982 32.4004 86.2002 32.4846V33.0232C86.2002 33.0232 86.2338 33.1242 86.2675 33.1747C86.3012 33.2252 86.3685 33.2757 86.4358 33.2925L87.2773 33.444C87.4119 33.4608 87.5297 33.3935 87.5802 33.2757L87.7821 32.7875C88.0009 32.7707 88.2197 32.7202 88.4217 32.6529L88.8087 33.0232C88.8929 33.1073 89.0444 33.1242 89.1453 33.0568L89.8522 32.5687C89.9531 32.5014 90.0036 32.3499 89.9531 32.2321H89.9363ZM88.5226 31.3737C87.6812 31.946 86.5536 31.7272 85.9814 30.9024C85.4092 30.0609 85.628 28.9332 86.4526 28.3609C87.2941 27.7886 88.4385 28.0074 89.0107 28.8322C89.5829 29.6569 89.3641 30.8014 88.5395 31.3737H88.5226Z" fill="#F4BB56"/>
<path d="M153.332 39.4356C154.594 36.3891 153.147 32.8882 150.101 31.6259C147.055 30.3635 143.571 31.811 142.292 34.8407C141.03 37.8871 142.477 41.3881 145.523 42.6504C148.569 43.9128 152.07 42.4821 153.332 39.4188V39.4356Z" fill="#F4BB56"/>
<path d="M271.424 287.816C271.559 287.85 271.626 287.984 271.592 288.119L271.39 288.826C271.357 288.961 271.222 289.028 271.088 288.994C270.953 288.961 270.886 288.826 270.919 288.691L271.121 287.985C271.155 287.85 271.289 287.783 271.424 287.816Z" fill="#F4BB56"/>
<path d="M272.888 282.464C273.023 282.497 273.09 282.632 273.057 282.767L272.855 283.474C272.821 283.608 272.686 283.676 272.552 283.642C272.417 283.608 272.35 283.474 272.384 283.339L272.586 282.632C272.619 282.497 272.754 282.43 272.888 282.464Z" fill="#F4BB56"/>
<path d="M272.67 287.833C272.67 287.833 272.821 287.917 272.838 288.001L273.023 288.725C273.057 288.86 272.973 288.994 272.855 289.028C272.72 289.062 272.586 288.978 272.552 288.86L272.367 288.153C272.333 288.018 272.417 287.884 272.535 287.85C272.586 287.85 272.619 287.85 272.67 287.85V287.833Z" fill="#F4BB56"/>
<path d="M271.256 282.464C271.256 282.464 271.407 282.548 271.424 282.632L271.609 283.339C271.643 283.474 271.559 283.608 271.441 283.642C271.306 283.676 271.172 283.592 271.138 283.474L270.953 282.767C270.919 282.632 271.003 282.498 271.121 282.464C271.172 282.464 271.205 282.464 271.256 282.464Z" fill="#F4BB56"/>
<path d="M273.763 287.21C273.763 287.21 273.831 287.244 273.864 287.277L274.386 287.799C274.487 287.9 274.487 288.051 274.386 288.136C274.285 288.237 274.133 288.237 274.032 288.136L273.511 287.614C273.41 287.513 273.41 287.361 273.511 287.26C273.578 287.193 273.662 287.176 273.746 287.193L273.763 287.21Z" fill="#F4BB56"/>
<path d="M269.842 283.255C269.842 283.255 269.926 283.288 269.96 283.322L270.482 283.844C270.583 283.945 270.583 284.096 270.482 284.197C270.381 284.298 270.229 284.298 270.128 284.197L269.607 283.675C269.506 283.574 269.523 283.423 269.607 283.322C269.674 283.255 269.758 283.238 269.842 283.255Z" fill="#F4BB56"/>
<path d="M274.386 286.133L275.093 286.335C275.228 286.369 275.295 286.503 275.261 286.638C275.228 286.773 275.093 286.84 274.958 286.806L274.252 286.604C274.117 286.571 274.05 286.436 274.083 286.301C274.117 286.167 274.252 286.099 274.386 286.133Z" fill="#F4BB56"/>
<path d="M269.018 284.669L269.741 284.871C269.876 284.904 269.943 285.039 269.91 285.174C269.876 285.308 269.741 285.376 269.607 285.342L268.883 285.14C268.748 285.106 268.681 284.972 268.715 284.837C268.748 284.702 268.883 284.635 269.018 284.669Z" fill="#F4BB56"/>
<path d="M275.11 284.702C275.194 284.719 275.261 284.786 275.278 284.887C275.312 285.022 275.228 285.157 275.11 285.19L274.403 285.375C274.269 285.409 274.134 285.325 274.1 285.207C274.067 285.072 274.151 284.938 274.269 284.904L274.975 284.719C274.975 284.719 275.06 284.719 275.11 284.719V284.702Z" fill="#F4BB56"/>
<path d="M269.724 286.116C269.724 286.116 269.876 286.2 269.893 286.284C269.926 286.419 269.842 286.554 269.724 286.587L269.018 286.772C268.883 286.806 268.748 286.722 268.715 286.587C268.681 286.453 268.748 286.318 268.883 286.284L269.59 286.099C269.59 286.099 269.674 286.099 269.708 286.099L269.724 286.116Z" fill="#F4BB56"/>
<path d="M274.302 283.288C274.302 283.288 274.386 283.322 274.403 283.356C274.504 283.457 274.504 283.608 274.403 283.709L273.881 284.231C273.78 284.315 273.629 284.332 273.528 284.231C273.427 284.13 273.427 283.978 273.528 283.877L274.05 283.356C274.05 283.356 274.201 283.272 274.285 283.288H274.302Z" fill="#F4BB56"/>
<path d="M270.347 287.193C270.347 287.193 270.431 287.227 270.448 287.26C270.549 287.361 270.549 287.513 270.448 287.614L269.926 288.136C269.825 288.22 269.674 288.237 269.59 288.136C269.489 288.035 269.489 287.883 269.59 287.782L270.112 287.26C270.112 287.26 270.263 287.176 270.347 287.193Z" fill="#F4BB56"/>
<path d="M27.7347 136.99C27.6674 136.873 27.5159 136.856 27.3981 136.923L26.7922 137.344C26.6744 137.411 26.6576 137.58 26.7249 137.681C26.8091 137.798 26.9605 137.815 27.0615 137.748L27.6674 137.327C27.7852 137.26 27.802 137.091 27.7347 136.99Z" fill="#F4BB56"/>
<path d="M32.3289 133.843C32.2448 133.725 32.0933 133.708 31.9923 133.776L31.3865 134.196C31.2687 134.281 31.2518 134.432 31.3192 134.533C31.4033 134.651 31.5548 134.668 31.6557 134.6L32.2616 134.18C32.3794 134.112 32.3962 133.944 32.3289 133.843Z" fill="#F4BB56"/>
<path d="M27.3308 135.812C27.3308 135.812 27.1961 135.694 27.112 135.711L26.3715 135.778C26.2369 135.778 26.1359 135.913 26.1527 136.048C26.1527 136.182 26.2873 136.283 26.422 136.267L27.1625 136.216C27.2971 136.216 27.3981 136.081 27.3813 135.947C27.3813 135.896 27.3644 135.863 27.3308 135.829V135.812Z" fill="#F4BB56"/>
<path d="M32.8674 135.375C32.8674 135.375 32.7328 135.257 32.6486 135.274L31.9081 135.324C31.7735 135.324 31.6725 135.459 31.6893 135.593C31.6893 135.728 31.824 135.829 31.9586 135.812L32.6991 135.762C32.8337 135.762 32.9347 135.627 32.9179 135.492C32.9179 135.442 32.9011 135.408 32.8842 135.375H32.8674Z" fill="#F4BB56"/>
<path d="M27.5494 134.584C27.5494 134.584 27.4989 134.516 27.4484 134.499L26.7752 134.18C26.6574 134.112 26.5059 134.18 26.4555 134.297C26.3881 134.415 26.4555 134.567 26.5733 134.634L27.2464 134.954C27.3642 135.021 27.5157 134.954 27.5662 134.836C27.5998 134.752 27.5999 134.668 27.5494 134.6V134.584Z" fill="#F4BB56"/>
<path d="M32.5645 136.974C32.5645 136.974 32.4972 136.906 32.4635 136.89L31.7903 136.57C31.6725 136.502 31.5211 136.57 31.4706 136.688C31.4033 136.805 31.4706 136.957 31.5884 137.007L32.2616 137.327C32.3794 137.378 32.5308 137.327 32.5813 137.209C32.615 137.125 32.615 137.041 32.5813 136.974H32.5645Z" fill="#F4BB56"/>
<path d="M28.3743 133.641L27.9535 133.035C27.8694 132.917 27.7179 132.9 27.6169 132.968C27.4991 133.035 27.4823 133.203 27.5496 133.304L27.9704 133.91C28.0545 134.028 28.206 134.045 28.3069 133.977C28.4248 133.91 28.4416 133.759 28.3743 133.641Z" fill="#F4BB56"/>
<path d="M31.5046 138.219L31.0839 137.613C31.0166 137.495 30.8651 137.478 30.7473 137.546C30.6295 137.63 30.6127 137.781 30.68 137.882L31.1007 138.488C31.168 138.606 31.3363 138.623 31.4373 138.556C31.5551 138.471 31.572 138.32 31.5046 138.219Z" fill="#F4BB56"/>
<path d="M29.4848 132.48C29.4848 132.48 29.3502 132.362 29.266 132.379C29.1314 132.379 29.0304 132.513 29.0472 132.631L29.0977 133.372C29.0977 133.506 29.2324 133.607 29.367 133.59C29.5016 133.59 29.6026 133.456 29.5858 133.321L29.5353 132.581C29.5353 132.581 29.5185 132.496 29.4848 132.463V132.48Z" fill="#F4BB56"/>
<path d="M29.9223 138.017C29.9223 138.017 29.7877 137.899 29.7035 137.916C29.5689 137.916 29.4679 138.051 29.4847 138.185L29.5352 138.926C29.5352 139.061 29.6699 139.162 29.8045 139.145C29.9391 139.145 30.0401 139.01 30.0233 138.892L29.9728 138.152C29.9728 138.152 29.956 138.068 29.9391 138.034L29.9223 138.017Z" fill="#F4BB56"/>
<path d="M31.0837 132.782C31.0837 132.782 31.0332 132.715 30.9827 132.698C30.8649 132.648 30.7135 132.698 30.663 132.816L30.3432 133.489C30.2927 133.607 30.3432 133.759 30.461 133.809C30.5788 133.876 30.7303 133.809 30.7808 133.691L31.1005 133.018C31.1005 133.018 31.1342 132.85 31.0837 132.766V132.782Z" fill="#F4BB56"/>
<path d="M28.694 137.798C28.694 137.798 28.6435 137.731 28.593 137.714C28.4752 137.647 28.3237 137.714 28.2733 137.832L27.9535 138.505C27.8862 138.623 27.9535 138.775 28.0713 138.825C28.1891 138.876 28.3406 138.825 28.3911 138.707L28.7108 138.034C28.7108 138.034 28.7445 137.866 28.694 137.798Z" fill="#F4BB56"/>
<path d="M165.365 3.5683C165.113 3.19801 165.197 2.69307 165.567 2.4406L165.87 2.22179C166.24 1.96932 166.745 2.07031 166.997 2.42376C167.25 2.79405 167.149 3.29899 166.779 3.55146L166.476 3.77027C166.105 4.02274 165.601 3.93859 165.348 3.5683H165.365Z" fill="#F4BB56"/>
<path d="M157.455 8.98822C157.203 8.61793 157.287 8.11299 157.657 7.86052L157.96 7.64171C158.33 7.38924 158.835 7.49023 159.088 7.84369C159.34 8.21398 159.239 8.71892 158.886 8.97139L158.583 9.19019C158.213 9.44266 157.708 9.35851 157.455 8.98822Z" fill="#F4BB56"/>
<path d="M162.42 1.63268C162.302 1.46436 162.252 1.24555 162.286 1.02675L162.353 0.656457C162.437 0.218842 162.858 -0.0672911 163.295 3.42987e-05C163.733 0.084191 164.019 0.504975 163.952 0.94259L163.884 1.31288C163.8 1.75049 163.38 2.05346 162.942 1.9693C162.723 1.93564 162.538 1.80099 162.42 1.63268Z" fill="#F4BB56"/>
<path d="M160.653 11.0751C160.535 10.9067 160.485 10.6879 160.519 10.4691L160.586 10.0988C160.67 9.66122 161.091 9.37509 161.528 9.44242C161.966 9.52657 162.252 9.94736 162.185 10.385L162.117 10.7553C162.033 11.1929 161.612 11.479 161.175 11.4117C160.956 11.378 160.771 11.2434 160.653 11.0751Z" fill="#F4BB56"/>
<path d="M158.97 2.37331L158.751 2.07035C158.499 1.70006 158.583 1.19512 158.97 0.942648C159.34 0.690178 159.845 0.774334 160.098 1.14462L160.316 1.44759C160.569 1.81788 160.468 2.32282 160.114 2.57529C159.744 2.82776 159.239 2.72677 158.987 2.37331H158.97Z" fill="#F4BB56"/>
<path d="M164.389 10.2838L164.17 9.98084C163.918 9.61055 164.002 9.10561 164.389 8.85314C164.759 8.60067 165.264 8.70165 165.517 9.05511L165.735 9.35808C165.988 9.72837 165.887 10.2333 165.533 10.4858C165.163 10.7382 164.658 10.6541 164.406 10.2838H164.389Z" fill="#F4BB56"/>
<path d="M156.664 5.25164C156.547 5.08333 156.496 4.86452 156.53 4.64571C156.614 4.2081 157.035 3.92197 157.472 3.98929L157.842 4.05662C158.28 4.14077 158.566 4.56156 158.482 4.99917C158.398 5.43679 157.977 5.73975 157.54 5.6556L157.169 5.58827C156.95 5.53778 156.765 5.41996 156.648 5.25164H156.664Z" fill="#F4BB56"/>
<path d="M166.106 7.0186C165.988 6.85029 165.938 6.63148 165.971 6.41267C166.055 5.97506 166.476 5.67209 166.914 5.75625L167.284 5.82358C167.721 5.90773 168.008 6.32852 167.94 6.76613C167.856 7.20375 167.435 7.50671 166.998 7.42255L166.628 7.35523C166.409 7.32157 166.224 7.18692 166.106 7.0186Z" fill="#F4BB56"/>
<path d="M62.7904 346.339L61.9994 345.935C61.3599 345.615 61.1074 344.858 61.4272 344.218L61.8311 343.427C62.1508 342.787 62.9082 342.535 63.5477 342.855L64.3387 343.259C64.9782 343.578 65.2306 344.353 64.9109 344.975L64.507 345.766C64.1872 346.406 63.4131 346.659 62.7904 346.339ZM66.6611 352.213L67.065 351.422C67.3848 350.782 67.1323 350.025 66.4928 349.705L65.7018 349.301C65.0623 348.981 64.305 349.251 63.9852 349.873L63.5813 350.664C63.2616 351.304 63.5309 352.061 64.1535 352.381L64.9445 352.785C65.584 353.105 66.3414 352.852 66.6611 352.213ZM66.2909 348.072L67.0819 348.476C67.7214 348.796 68.4787 348.527 68.7984 347.904L69.2023 347.113C69.5221 346.473 69.2697 345.716 68.6301 345.396L67.8392 344.992C67.1997 344.672 66.4423 344.942 66.1226 345.565L65.7355 346.356C65.4157 346.995 65.6682 347.753 66.3077 348.072H66.2909ZM59.8452 350.244L60.6362 350.631C61.2757 350.951 62.033 350.698 62.3528 350.058L62.7567 349.267C63.0765 348.628 62.8072 347.854 62.1845 347.551L61.3935 347.147C60.7708 346.827 59.9967 347.079 59.6769 347.719L59.273 348.51C58.9533 349.15 59.2225 349.907 59.8452 350.227V350.244Z" fill="#F4BB56"/>
<path d="M121.474 323.196C121.39 323.381 121.323 323.566 121.272 323.751C121.222 323.953 121.188 324.138 121.171 324.34L120.296 324.795C120.094 324.896 119.977 325.148 120.044 325.367L120.313 326.427C120.38 326.663 120.582 326.814 120.818 326.798L121.811 326.747C122.047 327.067 122.316 327.353 122.652 327.589L122.602 328.582C122.602 328.817 122.737 329.019 122.972 329.087L124.032 329.373C124.251 329.44 124.487 329.322 124.605 329.12L125.059 328.245C125.463 328.211 125.85 328.11 126.22 327.942L127.045 328.481C127.247 328.615 127.499 328.582 127.668 328.413L128.442 327.639C128.61 327.471 128.644 327.218 128.509 327.016L127.971 326.175C128.055 325.99 128.122 325.805 128.173 325.619C128.223 325.417 128.257 325.232 128.273 325.03L129.149 324.576C129.351 324.475 129.468 324.222 129.401 324.004L129.115 322.943C129.064 322.775 128.93 322.64 128.762 322.59C128.711 322.59 128.661 322.59 128.61 322.573L127.617 322.623C127.382 322.304 127.112 322.017 126.776 321.782L126.826 320.789C126.826 320.553 126.692 320.351 126.456 320.284L125.396 319.998C125.177 319.93 124.924 320.031 124.823 320.25L124.369 321.125C123.965 321.159 123.578 321.26 123.208 321.428L122.383 320.89C122.383 320.89 122.299 320.839 122.249 320.822C122.08 320.772 121.895 320.822 121.761 320.957L120.986 321.714C120.818 321.883 120.784 322.135 120.919 322.337L121.441 323.179L121.474 323.196ZM125.126 323.162C125.968 323.398 126.456 324.256 126.237 325.098C126.002 325.939 125.143 326.427 124.302 326.208C123.46 325.973 122.955 325.098 123.191 324.273C123.427 323.431 124.302 322.943 125.143 323.162H125.126Z" fill="#F4BB56"/>
<path d="M114.457 327.387L114.776 327.555C114.776 327.706 114.793 327.858 114.827 327.992L114.558 328.228C114.558 328.228 114.474 328.38 114.524 328.447L114.81 328.952C114.81 328.952 114.945 329.07 115.029 329.036L115.382 328.935C115.483 329.036 115.601 329.137 115.736 329.204V329.575C115.719 329.659 115.769 329.743 115.854 329.76L116.409 329.911C116.493 329.928 116.577 329.911 116.628 329.827L116.796 329.507C116.947 329.507 117.099 329.49 117.25 329.457L117.486 329.726C117.486 329.726 117.637 329.81 117.722 329.76L118.226 329.474C118.226 329.474 118.344 329.339 118.311 329.255L118.193 328.901C118.294 328.8 118.395 328.683 118.462 328.548H118.816C118.816 328.548 118.984 328.514 119.001 328.43L119.152 327.875C119.152 327.875 119.135 327.706 119.051 327.656L118.731 327.488C118.731 327.336 118.715 327.185 118.681 327.05L118.95 326.814C118.95 326.814 119.034 326.663 118.984 326.595L118.698 326.091C118.698 326.091 118.63 326.023 118.58 326.006C118.546 326.006 118.513 326.006 118.479 326.006L118.126 326.124C118.025 326.023 117.907 325.922 117.772 325.838V325.485C117.806 325.4 117.738 325.316 117.654 325.299L117.099 325.148C117.099 325.148 116.931 325.148 116.88 325.232L116.712 325.552C116.56 325.552 116.409 325.569 116.274 325.602L116.039 325.333C116.039 325.333 115.988 325.283 115.955 325.283C115.904 325.283 115.854 325.283 115.82 325.299L115.315 325.586C115.315 325.586 115.197 325.72 115.231 325.804L115.332 326.158C115.231 326.259 115.13 326.377 115.063 326.511H114.709C114.625 326.494 114.541 326.545 114.524 326.629L114.373 327.185C114.373 327.185 114.373 327.353 114.474 327.403L114.457 327.387ZM115.551 327.201C115.736 326.545 116.409 326.158 117.065 326.326C117.722 326.511 118.109 327.185 117.94 327.858C117.755 328.514 117.082 328.901 116.409 328.716C115.753 328.531 115.365 327.858 115.534 327.201H115.551Z" fill="#F4BB56"/>
<path d="M83.6588 341.424C83.4064 339.202 81.4037 337.62 79.199 337.873C76.9776 338.125 75.3956 340.128 75.648 342.333C75.9005 344.555 77.9032 346.137 80.1247 345.884C82.3461 345.632 83.9281 343.629 83.6756 341.424H83.6588Z" fill="#F4BB56"/>
<path d="M281.303 223.436L280.512 223.032C279.873 222.712 279.62 221.955 279.94 221.315L280.344 220.524C280.664 219.885 281.421 219.632 282.06 219.952L282.851 220.356C283.491 220.676 283.743 221.45 283.424 222.073L283.02 222.864C282.7 223.503 281.926 223.756 281.303 223.436ZM285.174 229.293L285.578 228.502C285.897 227.863 285.645 227.105 285.006 226.785L284.215 226.381C283.575 226.062 282.818 226.331 282.498 226.954L282.094 227.745C281.774 228.384 282.044 229.142 282.666 229.462L283.457 229.866C284.097 230.185 284.854 229.933 285.174 229.293ZM284.804 225.17L285.595 225.574C286.234 225.893 286.991 225.624 287.311 225.001L287.715 224.21C288.035 223.571 287.782 222.813 287.143 222.493L286.352 222.089C285.712 221.77 284.955 222.039 284.635 222.662L284.248 223.453C283.928 224.092 284.181 224.85 284.82 225.17H284.804ZM278.358 227.341L279.149 227.728C279.788 228.048 280.546 227.795 280.865 227.156L281.269 226.365C281.589 225.725 281.32 224.951 280.697 224.648L279.906 224.244C279.284 223.924 278.509 224.177 278.19 224.816L277.786 225.607C277.466 226.247 277.735 227.004 278.358 227.324V227.341Z" fill="#F4BB56"/>
<path d="M302.171 218.505C301.919 216.283 299.916 214.701 297.711 214.953C295.49 215.206 293.908 217.209 294.16 219.414C294.413 221.635 296.415 223.217 298.637 222.965C300.858 222.712 302.44 220.71 302.188 218.505H302.171Z" fill="#F4BB56"/>
<path d="M79.0139 316.261C78.7447 316.127 78.6269 315.807 78.7615 315.521L78.8793 315.285C79.0139 315.016 79.3505 314.898 79.6198 315.033C79.8891 315.167 80.0069 315.504 79.8722 315.773L79.7544 316.009C79.6198 316.278 79.2832 316.396 79.0139 316.261Z" fill="#F4BB56"/>
<path d="M76.1192 322.068C75.8499 321.933 75.749 321.597 75.8836 321.328L76.0014 321.109C76.136 320.839 76.4726 320.722 76.7419 320.856C77.0112 320.991 77.129 321.328 76.9943 321.597L76.8765 321.816C76.7419 322.085 76.4221 322.203 76.136 322.068H76.1192Z" fill="#F4BB56"/>
<path d="M76.6238 316.093C76.4892 316.026 76.405 315.925 76.3546 315.773L76.2704 315.537C76.1694 315.251 76.3209 314.932 76.6238 314.847C76.9099 314.746 77.2129 314.915 77.3138 315.201L77.398 315.436C77.499 315.723 77.3307 316.042 77.0614 316.127C76.9099 316.177 76.7585 316.16 76.6407 316.093H76.6238Z" fill="#F4BB56"/>
<path d="M78.6939 322.253C78.5593 322.186 78.4583 322.085 78.4247 321.933L78.3405 321.698C78.2395 321.411 78.4078 321.109 78.6939 321.008C78.98 320.907 79.2998 321.075 79.3839 321.361L79.4681 321.597C79.5691 321.883 79.4176 322.203 79.1315 322.287C78.98 322.337 78.8454 322.32 78.7108 322.253H78.6939Z" fill="#F4BB56"/>
<path d="M74.8231 317.658L74.6043 317.54C74.335 317.406 74.2172 317.086 74.3518 316.8C74.4865 316.53 74.8231 316.413 75.0923 316.547L75.3111 316.665C75.5804 316.8 75.6982 317.136 75.5636 317.406C75.4289 317.675 75.0923 317.793 74.8231 317.658Z" fill="#F4BB56"/>
<path d="M80.6292 320.553L80.4104 320.435C80.1412 320.301 80.0234 319.981 80.158 319.695C80.2926 319.425 80.6292 319.308 80.8985 319.442L81.1173 319.56C81.4034 319.695 81.5043 320.031 81.3697 320.301C81.2351 320.57 80.9153 320.688 80.6292 320.553Z" fill="#F4BB56"/>
<path d="M74.4194 320.116C74.3016 320.048 74.2006 319.947 74.1501 319.796C74.0491 319.51 74.2174 319.19 74.5035 319.106L74.7391 319.022C75.0252 318.921 75.3281 319.089 75.4291 319.375C75.5133 319.661 75.3618 319.964 75.0757 320.065L74.8401 320.149C74.6886 320.2 74.554 320.183 74.4194 320.116Z" fill="#F4BB56"/>
<path d="M80.579 318.062C80.4444 317.995 80.3434 317.894 80.3098 317.742C80.2088 317.456 80.3771 317.136 80.6632 317.052L80.8988 316.968C81.1849 316.867 81.5046 317.035 81.5888 317.305C81.6898 317.591 81.5383 317.911 81.2354 317.995L80.9998 318.079C80.8483 318.129 80.7137 318.113 80.579 318.045V318.062Z" fill="#F4BB56"/>
<path d="M248.991 21.6283L249.496 22.3689C249.899 22.958 249.748 23.7491 249.159 24.153L248.418 24.658C247.829 25.0619 247.038 24.9104 246.635 24.3213L246.13 23.5808C245.726 22.9917 245.877 22.2006 246.466 21.7966L247.207 21.2917C247.796 20.8878 248.587 21.0392 248.991 21.6283ZM248.452 14.6097L247.712 15.1146C247.123 15.5186 246.988 16.3096 247.375 16.8987L247.88 17.6393C248.284 18.2284 249.075 18.3799 249.664 17.9759L250.404 17.471C250.993 17.067 251.128 16.276 250.741 15.6869L250.236 14.9463C249.832 14.3572 249.041 14.2057 248.452 14.6097ZM246.786 18.3967L246.281 17.6561C245.877 17.067 245.086 16.9324 244.497 17.3195L243.757 17.8244C243.168 18.2284 243.033 19.0195 243.42 19.6086L243.925 20.3491C244.329 20.9382 245.12 21.0729 245.709 20.6858L246.449 20.1808C247.038 19.7769 247.19 18.9858 246.786 18.3967ZM253.467 19.6422L252.962 18.9017C252.558 18.3126 251.767 18.1779 251.178 18.565L250.438 19.07C249.849 19.4739 249.714 20.265 250.101 20.8541L250.606 21.5947C251.01 22.1838 251.801 22.3352 252.39 21.9313L253.131 21.4264C253.72 21.0224 253.854 20.2313 253.467 19.6422Z" fill="#F4BB56"/>
<path d="M8.81867 142.36C8.63355 142.444 8.46525 142.528 8.29696 142.646C8.12867 142.763 7.9772 142.881 7.84257 143.033L6.88329 142.814C6.64768 142.763 6.41207 142.881 6.31109 143.083L5.83987 144.076C5.7389 144.278 5.80621 144.548 5.99134 144.682L6.76549 145.288C6.73183 145.675 6.76549 146.079 6.86646 146.483L6.19329 147.207C6.025 147.375 6.00817 147.628 6.1428 147.83L6.76549 148.739C6.90012 148.941 7.15256 149.008 7.37135 148.924L8.28013 148.553C8.61672 148.789 8.97013 148.957 9.35721 149.075L9.64331 150.018C9.71063 150.237 9.92941 150.388 10.165 150.371L11.2589 150.287C11.4945 150.287 11.6797 150.085 11.7133 149.866L11.848 148.89C12.0331 148.806 12.2014 148.722 12.3697 148.604C12.538 148.486 12.6894 148.351 12.8241 148.217L13.7833 148.452C14.0189 148.503 14.2377 148.402 14.3387 148.183L14.8099 147.207C14.8941 147.039 14.8772 146.853 14.7763 146.702C14.7426 146.652 14.709 146.618 14.6753 146.584L13.9011 145.978C13.9348 145.591 13.9011 145.187 13.817 144.783L14.4902 144.059C14.6585 143.891 14.6753 143.622 14.5407 143.437L13.918 142.528C13.7833 142.326 13.5309 142.259 13.3121 142.343L12.4033 142.713C12.0667 142.477 11.7133 142.309 11.3262 142.191L11.0401 141.249C11.0401 141.249 11.0065 141.148 10.9728 141.114C10.8719 140.963 10.7036 140.878 10.5184 140.895L9.42453 140.979C9.18892 140.996 9.00379 141.181 8.97013 141.417L8.8355 142.393L8.81867 142.36ZM11.6292 144.716C12.1172 145.44 11.9321 146.416 11.2253 146.921C10.5016 147.409 9.5255 147.224 9.02062 146.517C8.53257 145.793 8.71769 144.817 9.42453 144.312C10.1482 143.824 11.1243 144.009 11.6292 144.716Z" fill="#F4BB56"/>
<path d="M0.757094 141.03L0.891729 141.366C0.790752 141.484 0.706606 141.602 0.639288 141.737H0.285871C0.201725 141.737 0.117578 141.804 0.117578 141.905L0.0166016 142.477C0.0166016 142.561 0.0502603 142.646 0.134407 142.679L0.470995 142.814C0.470995 142.965 0.521483 143.1 0.571971 143.252L0.31953 143.521C0.31953 143.521 0.252213 143.689 0.302701 143.757L0.622459 144.228C0.622459 144.228 0.757094 144.329 0.841241 144.295L1.17783 144.16C1.29563 144.245 1.43027 144.329 1.54807 144.396V144.75C1.54807 144.834 1.61539 144.918 1.71637 144.935L2.28857 145.036C2.37271 145.036 2.45686 145.002 2.49052 144.918L2.62515 144.581C2.77662 144.581 2.91125 144.531 3.06272 144.497L3.33199 144.75C3.33199 144.75 3.50028 144.817 3.5676 144.766L4.03882 144.447C4.03882 144.447 4.1398 144.312 4.10614 144.228L3.9715 143.891C4.07248 143.773 4.15663 143.656 4.22394 143.521H4.57736C4.66151 143.521 4.74565 143.437 4.76248 143.353L4.86346 142.797C4.86346 142.797 4.86346 142.696 4.8298 142.662C4.81297 142.629 4.77931 142.612 4.74565 142.595L4.40907 142.461C4.40907 142.309 4.35858 142.174 4.30809 142.023L4.56053 141.754C4.56053 141.754 4.62785 141.585 4.56053 141.518L4.24077 141.047C4.24077 141.047 4.10614 140.946 4.02199 140.979L3.6854 141.114C3.5676 141.013 3.44979 140.929 3.31516 140.862V140.508C3.31516 140.508 3.29833 140.441 3.26467 140.407C3.23101 140.373 3.19735 140.34 3.14686 140.34L2.59149 140.239C2.50735 140.239 2.4232 140.272 2.38954 140.357L2.25491 140.693C2.10344 140.693 1.96881 140.744 1.81734 140.777L1.54807 140.525C1.54807 140.525 1.39661 140.458 1.31246 140.525L0.841241 140.845C0.841241 140.845 0.740264 140.979 0.773923 141.064L0.757094 141.03ZM1.71637 141.602C2.27174 141.215 3.04589 141.366 3.43296 141.922C3.82004 142.477 3.66857 143.252 3.11321 143.639C2.55784 144.026 1.78369 143.874 1.39661 143.319C1.00953 142.763 1.161 141.989 1.71637 141.602Z" fill="#F4BB56"/>
<path d="M228.358 15.7876C227.499 17.8411 228.475 20.2143 230.529 21.0727C232.582 21.9311 234.955 20.9549 235.813 18.9014C236.671 16.848 235.695 14.4748 233.642 13.6164C231.589 12.758 229.216 13.7342 228.358 15.7876Z" fill="#F4BB56"/>
<path d="M4.66152 239.662C4.82981 239.914 4.76249 240.251 4.52688 240.419L4.32493 240.57C4.07249 240.739 3.7359 240.671 3.56761 240.436C3.39931 240.183 3.46663 239.847 3.70224 239.678L3.90419 239.544C4.15663 239.375 4.49322 239.443 4.66152 239.678V239.662Z" fill="#F4BB56"/>
<path d="M10.0136 235.992C10.1819 236.245 10.1145 236.581 9.87893 236.75L9.67698 236.901C9.42454 237.07 9.08795 237.002 8.91966 236.767C8.75136 236.514 8.81868 236.177 9.05429 236.009L9.25624 235.858C9.50869 235.689 9.84527 235.757 10.0136 235.992Z" fill="#F4BB56"/>
<path d="M6.66448 240.957C6.74863 241.075 6.78229 241.227 6.74863 241.361L6.69814 241.614C6.64765 241.917 6.36155 242.102 6.05862 242.051C5.75569 242.001 5.57057 241.715 5.62106 241.412L5.67155 241.159C5.72203 240.856 6.00813 240.671 6.31106 240.722C6.46253 240.755 6.58033 240.839 6.66448 240.957Z" fill="#F4BB56"/>
<path d="M7.84221 234.578C7.92636 234.696 7.96002 234.848 7.92636 234.982L7.87587 235.235C7.82538 235.538 7.53929 235.723 7.23636 235.672C6.93343 235.622 6.7483 235.336 6.79879 235.033L6.84928 234.78C6.89977 234.477 7.18587 234.292 7.4888 234.343C7.64026 234.376 7.75807 234.461 7.84221 234.578Z" fill="#F4BB56"/>
<path d="M9.00351 240.469L9.15497 240.671C9.32327 240.924 9.27278 241.261 9.02034 241.429C8.7679 241.597 8.43131 241.53 8.26302 241.294L8.11155 241.092C7.94326 240.84 8.01058 240.503 8.24619 240.335C8.49863 240.166 8.83521 240.234 9.00351 240.486V240.469Z" fill="#F4BB56"/>
<path d="M5.31773 235.117L5.4692 235.319C5.63749 235.571 5.587 235.908 5.33456 236.076C5.08212 236.245 4.74554 236.177 4.57724 235.942L4.44261 235.74C4.27431 235.487 4.34163 235.151 4.57724 234.982C4.82968 234.814 5.16627 234.881 5.33456 235.134L5.31773 235.117Z" fill="#F4BB56"/>
<path d="M10.552 238.517C10.6361 238.635 10.6698 238.786 10.6361 238.921C10.5856 239.224 10.2995 239.409 9.99661 239.359L9.74417 239.308C9.44124 239.258 9.25612 238.972 9.30661 238.669C9.35709 238.366 9.64319 238.18 9.94612 238.231L10.1986 238.281C10.35 238.315 10.4678 238.399 10.552 238.517Z" fill="#F4BB56"/>
<path d="M4.17356 237.322C4.25771 237.44 4.29137 237.591 4.25771 237.743C4.20722 238.046 3.92112 238.231 3.61819 238.18L3.36575 238.13C3.06282 238.079 2.8777 237.793 2.92819 237.49C2.97868 237.187 3.26477 237.002 3.5677 237.053L3.82014 237.103C3.97161 237.137 4.08941 237.221 4.17356 237.322Z" fill="#F4BB56"/>
</g>
<defs>
<linearGradient id="paint0_linear_129_365" x1="34.9836" y1="199.233" x2="273.321" y2="199.233" gradientUnits="userSpaceOnUse">
<stop stop-color="#FFB86D"/>
<stop offset="1" stop-color="#F29605"/>
</linearGradient>
<linearGradient id="paint1_linear_129_365" x1="247.256" y1="97.4607" x2="158.784" y2="364.961" gradientUnits="userSpaceOnUse">
<stop stop-color="#DC2300"/>
<stop offset="1" stop-color="#F29605"/>
</linearGradient>
<linearGradient id="paint2_linear_129_365" x1="207.874" y1="262.771" x2="109.412" y2="104.034" gradientUnits="userSpaceOnUse">
<stop stop-color="#FFB86D"/>
<stop offset="1" stop-color="white"/>
</linearGradient>
<linearGradient id="paint3_linear_129_365" x1="213.106" y1="259.372" x2="163.875" y2="193.639" gradientUnits="userSpaceOnUse">
<stop stop-color="#FFB86D"/>
<stop offset="1" stop-color="white"/>
</linearGradient>
<linearGradient id="paint4_linear_129_365" x1="135.405" y1="169.471" x2="183.947" y2="230.72" gradientUnits="userSpaceOnUse">
<stop stop-color="#DC2300"/>
<stop offset="1" stop-color="#F29605"/>
</linearGradient>
<linearGradient id="paint5_linear_129_365" x1="85.5596" y1="188.565" x2="194.276" y2="188.565" gradientUnits="userSpaceOnUse">
<stop stop-color="#FFB86D"/>
<stop offset="1" stop-color="#F29605"/>
</linearGradient>
<clipPath id="clip0_129_365">
<rect width="261.033" height="310.369" fill="white" transform="translate(34.9839 50.2329)"/>
</clipPath>
<clipPath id="clip1_129_365">
<rect width="331" height="377.645" fill="white"/>
</clipPath>
</defs>
</svg>
