<svg width="16" height="17" viewBox="0 0 16 17" fill="none" xmlns="http://www.w3.org/2000/svg">
<path d="M5.66691 5.16659C5.66691 4.86017 5.72726 4.55675 5.84452 4.27366C5.96178 3.99056 6.13366 3.73334 6.35033 3.51667C6.567 3.3 6.82422 3.12813 7.10731 3.01087C7.39041 2.89361 7.69382 2.83325 8.00024 2.83325C8.30666 2.83325 8.61008 2.89361 8.89317 3.01087C9.17626 3.12813 9.43349 3.3 9.65016 3.51667C9.86683 3.73334 10.0387 3.99056 10.156 4.27366C10.2732 4.55675 10.3336 4.86017 10.3336 5.16659C10.3336 5.78542 10.0877 6.37892 9.65016 6.8165C9.21257 7.25409 8.61908 7.49992 8.00024 7.49992C7.3814 7.49992 6.78791 7.25409 6.35033 6.8165C5.91274 6.37892 5.66691 5.78542 5.66691 5.16659ZM3.00024 8.16659C3.44227 8.16659 3.86619 7.99099 4.17875 7.67843C4.49131 7.36587 4.66691 6.94195 4.66691 6.49992C4.66691 6.05789 4.49131 5.63397 4.17875 5.32141C3.86619 5.00885 3.44227 4.83325 3.00024 4.83325C2.55821 4.83325 2.13429 5.00885 1.82173 5.32141C1.50917 5.63397 1.33358 6.05789 1.33358 6.49992C1.33358 6.94195 1.50917 7.36587 1.82173 7.67843C2.13429 7.99099 2.55821 8.16659 3.00024 8.16659ZM14.6669 6.49992C14.6669 6.94195 14.4913 7.36587 14.1788 7.67843C13.8662 7.99099 13.4423 8.16659 13.0002 8.16659C12.5582 8.16659 12.1343 7.99099 11.8217 7.67843C11.5092 7.36587 11.3336 6.94195 11.3336 6.49992C11.3336 6.05789 11.5092 5.63397 11.8217 5.32141C12.1343 5.00885 12.5582 4.83325 13.0002 4.83325C13.4423 4.83325 13.8662 5.00885 14.1788 5.32141C14.4913 5.63397 14.6669 6.05789 14.6669 6.49992ZM7.00024 8.83325C6.08024 8.83325 5.33358 9.57992 5.33358 10.4999V12.1666C5.33358 12.8738 5.61453 13.5521 6.11462 14.0522C6.61472 14.5523 7.293 14.8333 8.00024 14.8333C8.70749 14.8333 9.38576 14.5523 9.88586 14.0522C10.386 13.5521 10.6669 12.8738 10.6669 12.1666V10.4999C10.6669 9.57992 9.92024 8.83325 9.00024 8.83325H7.00024ZM4.00024 10.4999C4.00024 10.1146 4.07224 9.74659 4.20558 9.40925L2.56424 9.84925C2.13752 9.96364 1.77368 10.2428 1.55266 10.6253C1.33165 11.0078 1.27155 11.4624 1.38558 11.8893L1.64424 12.8559C1.73491 13.1942 1.89132 13.5114 2.10457 13.7892C2.31781 14.0671 2.5837 14.3002 2.88705 14.4752C3.19039 14.6503 3.52526 14.7639 3.87252 14.8096C4.21978 14.8552 4.57262 14.832 4.91091 14.7413L4.93358 14.7346C4.33068 14.0147 4.00029 13.1056 4.00024 12.1666V10.4999ZM12.0002 12.1666C12.0002 13.1439 11.6496 14.0399 11.0669 14.7359L11.0882 14.7413C11.7713 14.9241 12.4989 14.8282 13.1113 14.4747C13.7236 14.1211 14.1705 13.5389 14.3536 12.8559L14.6122 11.8893C14.7263 11.4624 14.6662 11.0078 14.4452 10.6253C14.2241 10.2428 13.8603 9.96364 13.4336 9.84925L11.7962 9.40925C11.9282 9.74792 12.0002 10.1159 12.0002 10.4999V12.1666Z" fill="url(#paint0_linear_303_1227)"/>
<defs>
<linearGradient id="paint0_linear_303_1227" x1="7.99891" y1="2.83325" x2="7.99891" y2="14.8333" gradientUnits="userSpaceOnUse">
<stop stop-color="#F2DC4C"/>
<stop offset="1" stop-color="#666666"/>
</linearGradient>
</defs>
</svg>
