<svg width="28" height="27" viewBox="0 0 28 27" fill="none" xmlns="http://www.w3.org/2000/svg">
<g id="si:copy-fill">
<path id="Vector" d="M5.00001 6.07501C5.00001 5.19976 5.69976 4.50001 6.57501 4.50001H14.675C15.5503 4.50001 16.25 5.19976 16.25 6.07501V6.75001C16.25 6.89774 16.2791 7.04403 16.3356 7.18052C16.3922 7.31702 16.475 7.44103 16.5795 7.5455C16.684 7.64997 16.808 7.73283 16.9445 7.78937C17.081 7.84591 17.2273 7.87501 17.375 7.87501C17.5227 7.87501 17.669 7.84591 17.8055 7.78937C17.942 7.73283 18.066 7.64997 18.1705 7.5455C18.275 7.44103 18.3578 7.31702 18.4144 7.18052C18.4709 7.04403 18.5 6.89774 18.5 6.75001V6.07501C18.5 3.95776 16.7923 2.25001 14.675 2.25001H6.57501C6.07245 2.24912 5.57466 2.34745 5.11019 2.53936C4.64572 2.73126 4.2237 3.01298 3.86834 3.36834C3.51298 3.7237 3.23126 4.14572 3.03936 4.61019C2.84745 5.07466 2.74912 5.57245 2.75001 6.07501V14.175C2.75001 16.2923 4.45776 18 6.57501 18H7.25001C7.54837 18 7.83452 17.8815 8.0455 17.6705C8.25648 17.4595 8.37501 17.1734 8.37501 16.875C8.37501 16.5766 8.25648 16.2905 8.0455 16.0795C7.83452 15.8685 7.54837 15.75 7.25001 15.75H6.57501C5.69976 15.75 5.00001 15.0503 5.00001 14.175V6.07501Z" fill="white" fill-opacity="0.25"/>
<path id="Vector_2" d="M10.625 12.825C10.625 12.1089 10.9095 11.4222 11.4158 10.9158C11.9222 10.4095 12.6089 10.125 13.325 10.125H21.425C22.1411 10.125 22.8278 10.4095 23.3342 10.9158C23.8405 11.4222 24.125 12.1089 24.125 12.825V20.925C24.125 21.6411 23.8405 22.3278 23.3342 22.8342C22.8278 23.3405 22.1411 23.625 21.425 23.625H13.325C12.6089 23.625 11.9222 23.3405 11.4158 22.8342C10.9095 22.3278 10.625 21.6411 10.625 20.925V12.825Z" fill="white" fill-opacity="0.25"/>
</g>
</svg>
