<svg width="15" height="15" viewBox="0 0 15 15" fill="none" xmlns="http://www.w3.org/2000/svg">
<g clip-path="url(#clip0_303_1258)">
<path fill-rule="evenodd" clip-rule="evenodd" d="M6.733 3.4998C6.55752 3.80405 6.30502 4.05673 6.00089 4.23241C5.69676 4.40809 5.35173 4.50058 5.0005 4.50058C4.64927 4.50058 4.30424 4.40809 4.00011 4.23241C3.69598 4.05673 3.44348 3.80405 3.268 3.4998H1.5C1.23478 3.4998 0.98043 3.39445 0.792893 3.20691C0.605357 3.01937 0.5 2.76502 0.5 2.4998C0.5 2.23459 0.605357 1.98023 0.792893 1.7927C0.98043 1.60516 1.23478 1.4998 1.5 1.4998H3.268C3.44348 1.19555 3.69598 0.942879 4.00011 0.767197C4.30424 0.591516 4.64927 0.499023 5.0005 0.499023C5.35173 0.499023 5.69676 0.591516 6.00089 0.767197C6.30502 0.942879 6.55752 1.19555 6.733 1.4998H11.25C12.112 1.4998 12.9386 1.84221 13.5481 2.4517C14.1576 3.0612 14.5 3.88785 14.5 4.7498C14.5 5.61176 14.1576 6.43841 13.5481 7.0479C12.9386 7.65739 12.112 7.9998 11.25 7.9998H10.733C10.5576 8.30429 10.3051 8.55718 10.0008 8.73302C9.69659 8.90886 9.3514 9.00145 9 9.00145C8.6486 9.00145 8.30341 8.90886 7.99918 8.73302C7.69494 8.55718 7.44241 8.30429 7.267 7.9998H4C3.60218 7.9998 3.22064 8.15784 2.93934 8.43914C2.65804 8.72045 2.5 9.10198 2.5 9.4998C2.5 9.89763 2.65804 10.2792 2.93934 10.5605C3.22064 10.8418 3.60218 10.9998 4 10.9998H4.268C4.44354 10.6958 4.69602 10.4433 5.00004 10.2678C5.30407 10.0923 5.64894 9.99989 6 9.99989C6.35106 9.99989 6.69593 10.0923 6.99996 10.2678C7.30398 10.4433 7.55646 10.6958 7.732 10.9998H11.5V9.9998C11.4998 9.90078 11.5291 9.80394 11.584 9.72155C11.6389 9.63916 11.7171 9.57493 11.8085 9.53702C11.9 9.4991 12.0007 9.4892 12.0978 9.50856C12.1949 9.52793 12.2841 9.5757 12.354 9.6458L14.354 11.6458C14.4477 11.7396 14.5004 11.8667 14.5004 11.9993C14.5004 12.1319 14.4477 12.259 14.354 12.3528L12.354 14.3528C12.2841 14.4228 12.1951 14.4706 12.098 14.49C12.001 14.5094 11.9004 14.4996 11.809 14.4618C11.7176 14.424 11.6394 14.3599 11.5844 14.2777C11.5294 14.1954 11.5 14.0987 11.5 13.9998V12.9998H7.733C7.55759 13.3043 7.30506 13.5572 7.00082 13.733C6.69659 13.9089 6.3514 14.0014 6 14.0014C5.6486 14.0014 5.30341 13.9089 4.99918 13.733C4.69494 13.5572 4.44241 13.3043 4.267 12.9998H4C3.54037 12.9998 3.08525 12.9093 2.66061 12.7334C2.23597 12.5575 1.85013 12.2997 1.52513 11.9747C1.20012 11.6497 0.942313 11.2638 0.766422 10.8392C0.59053 10.4146 0.5 9.95943 0.5 9.4998C0.5 9.04018 0.59053 8.58505 0.766422 8.16041C0.942313 7.73577 1.20012 7.34993 1.52513 7.02493C1.85013 6.69992 2.23597 6.44211 2.66061 6.26622C3.08525 6.09033 3.54037 5.9998 4 5.9998H7.268C7.44354 5.69579 7.69602 5.44333 8.00004 5.26781C8.30407 5.09229 8.64894 4.99989 9 4.99989C9.35106 4.99989 9.69593 5.09229 9.99996 5.26781C10.304 5.44333 10.5565 5.69579 10.732 5.9998H11.25C11.5815 5.9998 11.8995 5.86811 12.1339 5.63369C12.3683 5.39926 12.5 5.08132 12.5 4.7498C12.5 4.41828 12.3683 4.10034 12.1339 3.86592C11.8995 3.6315 11.5815 3.4998 11.25 3.4998H6.733Z" fill="url(#paint0_linear_303_1258)"/>
</g>
<defs>
<linearGradient id="paint0_linear_303_1258" x1="7.5002" y1="0.499023" x2="7.5002" y2="14.4997" gradientUnits="userSpaceOnUse">
<stop stop-color="#F2DC4C"/>
<stop offset="1" stop-color="#666666"/>
</linearGradient>
<clipPath id="clip0_303_1258">
<rect width="14" height="14" fill="white" transform="translate(0.5 0.5)"/>
</clipPath>
</defs>
</svg>
