<svg width="25" height="24" viewBox="0 0 25 24" fill="none" xmlns="http://www.w3.org/2000/svg">
<path d="M11.5002 6.0001H14.5002L17.7902 2.7001C17.8832 2.60637 17.9938 2.53197 18.1156 2.4812C18.2375 2.43044 18.3682 2.4043 18.5002 2.4043C18.6322 2.4043 18.7629 2.43044 18.8848 2.4812C19.0067 2.53197 19.1173 2.60637 19.2102 2.7001L21.7902 5.2901C21.9765 5.47746 22.081 5.73091 22.081 5.9951C22.081 6.25928 21.9765 6.51273 21.7902 6.7001L19.5002 9.0001H11.5002V11.0001C11.5002 11.2653 11.3949 11.5197 11.2073 11.7072C11.0198 11.8947 10.7654 12.0001 10.5002 12.0001C10.235 12.0001 9.98066 11.8947 9.79312 11.7072C9.60558 11.5197 9.50023 11.2653 9.50023 11.0001V8.0001C9.50023 7.46966 9.71094 6.96095 10.086 6.58588C10.4611 6.21081 10.9698 6.0001 11.5002 6.0001ZM5.50023 11.0001V15.0001L3.21023 17.2901C3.02398 17.4775 2.91943 17.7309 2.91943 17.9951C2.91943 18.2593 3.02398 18.5127 3.21023 18.7001L5.79023 21.2901C5.88319 21.3838 5.99379 21.4582 6.11565 21.509C6.23751 21.5598 6.36821 21.5859 6.50023 21.5859C6.63224 21.5859 6.76294 21.5598 6.8848 21.509C7.00666 21.4582 7.11726 21.3838 7.21023 21.2901L11.5002 17.0001H15.5002C15.7654 17.0001 16.0198 16.8947 16.2073 16.7072C16.3949 16.5197 16.5002 16.2653 16.5002 16.0001V15.0001H17.5002C17.7654 15.0001 18.0198 14.8947 18.2073 14.7072C18.3949 14.5197 18.5002 14.2653 18.5002 14.0001V13.0001H19.5002C19.7654 13.0001 20.0198 12.8947 20.2073 12.7072C20.3949 12.5197 20.5002 12.2653 20.5002 12.0001V11.0001H13.5002V12.0001C13.5002 12.5305 13.2895 13.0392 12.9144 13.4143C12.5394 13.7894 12.0307 14.0001 11.5002 14.0001H9.50023C8.96979 14.0001 8.46109 13.7894 8.08601 13.4143C7.71094 13.0392 7.50023 12.5305 7.50023 12.0001V9.0001L5.50023 11.0001Z" fill="url(#paint0_linear_303_1210)"/>
<defs>
<linearGradient id="paint0_linear_303_1210" x1="12.5002" y1="2.4043" x2="12.5002" y2="21.5859" gradientUnits="userSpaceOnUse">
<stop stop-color="#F2DC4C"/>
<stop offset="1" stop-color="#666666"/>
</linearGradient>
</defs>
</svg>
