<svg width="44" height="44" viewBox="0 0 44 44" fill="none" xmlns="http://www.w3.org/2000/svg">
<g id="heroicons-outline:receipt-tax">
<path id="Vector" d="M16.4998 25.6667L27.4998 14.6667M17.4165 15.5833H17.4348M26.5832 24.75H26.6015M34.8332 38.5V9.16667C34.8332 8.19421 34.4469 7.26158 33.7592 6.57394C33.0716 5.88631 32.139 5.5 31.1665 5.5H12.8332C11.8607 5.5 10.9281 5.88631 10.2404 6.57394C9.55281 7.26158 9.1665 8.19421 9.1665 9.16667V38.5L15.5832 34.8333L21.9998 38.5L28.4165 34.8333L34.8332 38.5ZM18.3332 15.5833C18.3332 15.8264 18.2366 16.0596 18.0647 16.2315C17.8928 16.4034 17.6596 16.5 17.4165 16.5C17.1734 16.5 16.9402 16.4034 16.7683 16.2315C16.5964 16.0596 16.4998 15.8264 16.4998 15.5833C16.4998 15.3402 16.5964 15.1071 16.7683 14.9352C16.9402 14.7632 17.1734 14.6667 17.4165 14.6667C17.6596 14.6667 17.8928 14.7632 18.0647 14.9352C18.2366 15.1071 18.3332 15.3402 18.3332 15.5833ZM27.4998 24.75C27.4998 24.9931 27.4033 25.2263 27.2314 25.3982C27.0594 25.5701 26.8263 25.6667 26.5832 25.6667C26.3401 25.6667 26.1069 25.5701 25.935 25.3982C25.7631 25.2263 25.6665 24.9931 25.6665 24.75C25.6665 24.5069 25.7631 24.2737 25.935 24.1018C26.1069 23.9299 26.3401 23.8333 26.5832 23.8333C26.8263 23.8333 27.0594 23.9299 27.2314 24.1018C27.4033 24.2737 27.4998 24.5069 27.4998 24.75Z" stroke="url(#paint0_linear_260_1050)" stroke-width="2" stroke-linecap="round" stroke-linejoin="round"/>
</g>
<defs>
<linearGradient id="paint0_linear_260_1050" x1="21.9998" y1="5.5" x2="21.9998" y2="38.5" gradientUnits="userSpaceOnUse">
<stop stop-color="#F2DC4C"/>
<stop offset="1" stop-color="#666666"/>
</linearGradient>
</defs>
</svg>
