<svg width="23" height="30" viewBox="0 0 23 30" fill="none" xmlns="http://www.w3.org/2000/svg">
<path d="M22.4672 7.79998C22.4672 11.778 17.6324 15 11.6672 15C5.70199 15 0.867188 11.778 0.867188 7.79998C0.867188 3.82198 5.70199 0.599976 11.6672 0.599976C17.6324 0.599976 22.4672 3.82198 22.4672 7.79998ZM22.0172 12.9354C19.7402 15.27 15.9512 16.8 11.6672 16.8C7.38319 16.8 3.59419 15.27 1.31719 12.9354C1.02559 13.5888 0.867188 14.28 0.867188 15C0.867188 18.978 5.70199 22.2 11.6672 22.2C17.6324 22.2 22.4672 18.978 22.4672 15C22.4648 14.2877 22.3114 13.584 22.0172 12.9354ZM22.0172 20.1354C19.7402 22.47 15.9512 24 11.6672 24C7.38319 24 3.59419 22.47 1.31719 20.1354C1.02559 20.7888 0.867188 21.48 0.867188 22.2C0.867188 26.178 5.70199 29.4 11.6672 29.4C17.6324 29.4 22.4672 26.178 22.4672 22.2C22.4648 21.4877 22.3114 20.784 22.0172 20.1354Z" fill="url(#paint0_linear_305_769)"/>
<defs>
<linearGradient id="paint0_linear_305_769" x1="11.6672" y1="0.599976" x2="11.6672" y2="29.4" gradientUnits="userSpaceOnUse">
<stop stop-color="#F2DC4C"/>
<stop offset="1" stop-color="#666666"/>
</linearGradient>
</defs>
</svg>
