<svg width="46" height="46" viewBox="0 0 46 46" fill="none" xmlns="http://www.w3.org/2000/svg">
<path d="M25.3128 0.166992C27.8441 0.173742 29.1288 0.187242 30.2381 0.218742L30.6746 0.234492C31.1786 0.252492 31.6758 0.274992 32.2766 0.301992C34.6706 0.414492 36.3041 0.792492 37.7373 1.34824C39.2223 1.91974 40.4733 2.69374 41.7243 3.94249C42.8689 5.06689 43.7542 6.42755 44.3186 7.92949C44.8743 9.36274 45.2523 10.9962 45.3648 13.3925C45.3918 13.991 45.4143 14.4882 45.4323 14.9945L45.4458 15.431C45.4796 16.538 45.4931 17.8227 45.4976 20.354L45.4998 22.0325V24.98C45.5053 26.6212 45.488 28.2623 45.4481 29.903L45.4346 30.3395C45.4166 30.8457 45.3941 31.343 45.3671 31.9415C45.2546 34.3377 44.8721 35.969 44.3186 37.4045C43.7542 38.9064 42.8689 40.2671 41.7243 41.3915C40.5999 42.5361 39.2393 43.4214 37.7373 43.9857C36.3041 44.5415 34.6706 44.9195 32.2766 45.032L30.6746 45.0995L30.2381 45.113C29.1288 45.1445 27.8441 45.1602 25.3128 45.1647L23.6343 45.167H20.6891C19.0472 45.1728 17.4052 45.1555 15.7638 45.1152L15.3273 45.1017C14.7932 45.0815 14.2592 45.0583 13.7253 45.032C11.3313 44.9195 9.69781 44.5415 8.26231 43.9857C6.76118 43.4211 5.40131 42.5358 4.27756 41.3915C3.13219 40.2673 2.24606 38.9066 1.68107 37.4045C1.12532 35.9712 0.747315 34.3377 0.634815 31.9415L0.567315 30.3395L0.556065 29.903C0.514589 28.2623 0.495837 26.6212 0.499815 24.98V20.354C0.493587 18.7128 0.510089 17.0717 0.549315 15.431L0.565065 14.9945C0.583065 14.4882 0.605565 13.991 0.632565 13.3925C0.745065 10.9962 1.12306 9.36499 1.67881 7.92949C2.24513 6.42694 3.13282 5.06622 4.27981 3.94249C5.40291 2.79848 6.76199 1.91316 8.26231 1.34824C9.69781 0.792492 11.3291 0.414492 13.7253 0.301992C14.3238 0.274992 14.8233 0.252492 15.3273 0.234492L15.7638 0.220992C17.4045 0.181016 19.0457 0.163764 20.6868 0.169242L25.3128 0.166992ZM22.9998 11.417C20.0161 11.417 17.1546 12.6023 15.0449 14.712C12.9351 16.8218 11.7498 19.6833 11.7498 22.667C11.7498 25.6507 12.9351 28.5122 15.0449 30.6219C17.1546 32.7317 20.0161 33.917 22.9998 33.917C25.9835 33.917 28.845 32.7317 30.9548 30.6219C33.0645 28.5122 34.2498 25.6507 34.2498 22.667C34.2498 19.6833 33.0645 16.8218 30.9548 14.712C28.845 12.6023 25.9835 11.417 22.9998 11.417ZM22.9998 15.917C23.8862 15.9168 24.764 16.0913 25.583 16.4304C26.402 16.7695 27.1462 17.2665 27.7731 17.8932C28.4 18.5199 28.8973 19.2639 29.2367 20.0828C29.576 20.9017 29.7508 21.7794 29.7509 22.6659C29.7511 23.5523 29.5766 24.4301 29.2376 25.2491C28.8985 26.0681 28.4014 26.8123 27.7747 27.4392C27.148 28.0661 26.404 28.5634 25.5851 28.9027C24.7662 29.2421 23.8885 29.4168 23.0021 29.417C21.2119 29.417 19.495 28.7058 18.2291 27.44C16.9632 26.1741 16.2521 24.4572 16.2521 22.667C16.2521 20.8768 16.9632 19.1599 18.2291 17.894C19.495 16.6282 21.2119 15.917 23.0021 15.917M34.8146 8.04199C34.0686 8.04199 33.3533 8.33831 32.8258 8.86575C32.2984 9.3932 32.0021 10.1086 32.0021 10.8545C32.0021 11.6004 32.2984 12.3158 32.8258 12.8432C33.3533 13.3707 34.0686 13.667 34.8146 13.667C35.5605 13.667 36.2759 13.3707 36.8033 12.8432C37.3307 12.3158 37.6271 11.6004 37.6271 10.8545C37.6271 10.1086 37.3307 9.3932 36.8033 8.86575C36.2759 8.33831 35.5605 8.04199 34.8146 8.04199Z" fill="url(#paint0_linear_305_1073)"/>
<defs>
<linearGradient id="paint0_linear_305_1073" x1="22.9997" y1="0.166992" x2="22.9997" y2="45.1681" gradientUnits="userSpaceOnUse">
<stop stop-color="#F2DC4C"/>
<stop offset="1" stop-color="#666666"/>
</linearGradient>
</defs>
</svg>
