<svg width="50" height="51" viewBox="0 0 50 51" fill="none" xmlns="http://www.w3.org/2000/svg">
<g id="mdi:reddit">
<path id="Vector" d="M30.75 34.093C30.934 34.3 30.934 34.737 30.75 34.99C29.071 36.6 25.943 36.738 25 36.738C24.103 36.738 20.975 36.6 19.342 34.99C19.112 34.737 19.112 34.3 19.342 34.093C19.595 33.863 19.986 33.863 20.216 34.093C21.274 35.151 23.459 35.45 25 35.45C26.587 35.45 28.818 35.151 29.83 34.093C30.083 33.863 30.474 33.863 30.75 34.093ZM22.125 28.642C22.125 27.331 21.044 26.25 19.733 26.25C18.422 26.25 17.341 27.331 17.341 28.642C17.341 29.953 18.422 31.057 19.733 31.034C21.044 31.034 22.125 29.953 22.125 28.642ZM30.267 26.25C28.956 26.25 27.875 27.4 27.875 28.665C27.875 29.93 28.956 31.057 30.267 31.057C31.578 31.057 32.659 29.953 32.659 28.665C32.659 27.4 31.578 26.25 30.267 26.25ZM48 26.25C48 38.9 37.65 49.25 25 49.25C12.35 49.25 2 38.9 2 26.25C2 13.6 12.35 3.25 25 3.25C37.65 3.25 48 13.6 48 26.25ZM40.341 26.25C40.341 24.387 38.8 22.892 37.006 22.892C36.086 22.892 35.258 23.26 34.66 23.835C32.36 22.179 29.209 21.121 25.69 20.983L27.231 13.784L32.222 14.865C32.268 16.13 33.326 17.142 34.614 17.142C35.925 17.142 37.006 16.061 37.006 14.75C37.006 13.439 35.925 12.358 34.614 12.358C33.671 12.358 32.843 12.91 32.475 13.715L26.886 12.519C26.725 12.45 26.564 12.519 26.449 12.611C26.311 12.703 26.242 12.841 26.219 13.002L24.517 21.006C20.952 21.121 17.732 22.179 15.386 23.858C14.788 23.283 13.96 22.938 13.063 22.938C11.2 22.938 9.705 24.433 9.705 26.25C9.705 27.653 10.533 28.803 11.683 29.332C11.637 29.7 11.614 29.976 11.614 30.344C11.614 35.45 17.617 39.705 25 39.705C32.429 39.705 38.455 35.519 38.455 30.344C38.455 30.022 38.432 29.7 38.363 29.332C39.513 28.803 40.341 27.63 40.341 26.25Z" fill="#FFFFF4"/>
</g>
</svg>
