<svg width="50" height="50" viewBox="0 0 50 50" fill="none" xmlns="http://www.w3.org/2000/svg">
<g id="mdi:reddit">
<path id="Vector" d="M30.75 33.343C30.934 33.55 30.934 33.987 30.75 34.24C29.071 35.85 25.943 35.988 25 35.988C24.103 35.988 20.975 35.85 19.342 34.24C19.112 33.987 19.112 33.55 19.342 33.343C19.595 33.113 19.986 33.113 20.216 33.343C21.274 34.401 23.459 34.7 25 34.7C26.587 34.7 28.818 34.401 29.83 33.343C30.083 33.113 30.474 33.113 30.75 33.343ZM22.125 27.892C22.125 26.581 21.044 25.5 19.733 25.5C18.422 25.5 17.341 26.581 17.341 27.892C17.341 29.203 18.422 30.307 19.733 30.284C21.044 30.284 22.125 29.203 22.125 27.892ZM30.267 25.5C28.956 25.5 27.875 26.65 27.875 27.915C27.875 29.18 28.956 30.307 30.267 30.307C31.578 30.307 32.659 29.203 32.659 27.915C32.659 26.65 31.578 25.5 30.267 25.5ZM48 25.5C48 38.15 37.65 48.5 25 48.5C12.35 48.5 2 38.15 2 25.5C2 12.85 12.35 2.5 25 2.5C37.65 2.5 48 12.85 48 25.5ZM40.341 25.5C40.341 23.637 38.8 22.142 37.006 22.142C36.086 22.142 35.258 22.51 34.66 23.085C32.36 21.429 29.209 20.371 25.69 20.233L27.231 13.034L32.222 14.115C32.268 15.38 33.326 16.392 34.614 16.392C35.925 16.392 37.006 15.311 37.006 14C37.006 12.689 35.925 11.608 34.614 11.608C33.671 11.608 32.843 12.16 32.475 12.965L26.886 11.769C26.725 11.7 26.564 11.769 26.449 11.861C26.311 11.953 26.242 12.091 26.219 12.252L24.517 20.256C20.952 20.371 17.732 21.429 15.386 23.108C14.788 22.533 13.96 22.188 13.063 22.188C11.2 22.188 9.705 23.683 9.705 25.5C9.705 26.903 10.533 28.053 11.683 28.582C11.637 28.95 11.614 29.226 11.614 29.594C11.614 34.7 17.617 38.955 25 38.955C32.429 38.955 38.455 34.769 38.455 29.594C38.455 29.272 38.432 28.95 38.363 28.582C39.513 28.053 40.341 26.88 40.341 25.5Z" fill="url(#paint0_linear_281_1485)"/>
</g>
<defs>
<linearGradient id="paint0_linear_281_1485" x1="25" y1="2.5" x2="25" y2="48.5" gradientUnits="userSpaceOnUse">
<stop stop-color="#F2DC4C"/>
<stop offset="1" stop-color="#666666"/>
</linearGradient>
</defs>
</svg>
