<svg width="50" height="51" viewBox="0 0 50 51" fill="none" xmlns="http://www.w3.org/2000/svg">
<g id="mingcute:telegram-line" clip-path="url(#clip0_158_58)">
<g id="Group">
<path id="Vector" fill-rule="evenodd" clip-rule="evenodd" d="M47.9535 10.9079C48.055 10.2917 47.9895 9.65962 47.7637 9.07739C47.5379 8.49517 47.16 7.98415 46.6696 7.59759C46.1791 7.21102 45.594 6.96306 44.9751 6.87953C44.3562 6.79599 43.7263 6.87995 43.1509 7.12265L3.34279 23.884C0.56786 25.0526 0.425854 29.066 3.34279 30.2765C6.23152 31.4802 9.16193 32.5812 12.1285 33.5776C14.8476 34.4762 17.8134 35.3073 20.1902 35.5424C20.8397 36.3199 21.6569 37.0695 22.4903 37.7539C23.7637 38.8015 25.2955 39.8794 26.8785 40.913C30.0491 42.9849 33.5667 44.966 35.9366 46.2557C38.7697 47.7921 42.1615 46.0229 42.669 42.9337L47.9535 10.9079ZM7.80549 27.057L43.0136 12.2325L38.0829 42.1235C35.7573 40.8594 32.4074 38.9668 29.4229 37.016C28.0475 36.1328 26.7195 35.1778 25.4444 34.1549C25.1037 33.8765 24.7729 33.5861 24.4527 33.2843L33.6738 24.0655C34.1106 23.629 34.3561 23.0369 34.3563 22.4193C34.3566 21.8018 34.1115 21.2095 33.6749 20.7726C33.2384 20.3358 32.6463 20.0903 32.0287 20.0901C31.4112 20.0899 30.8189 20.335 30.382 20.7715L20.2857 30.8678C18.577 30.649 16.1978 30.0158 13.5858 29.1545C11.6413 28.5066 9.7146 27.8064 7.80782 27.0546L7.80549 27.057Z" fill="#FFFFF4"/>
</g>
</g>
<defs>
<clipPath id="clip0_158_58">
<rect width="50" height="50" fill="white" transform="translate(0 0.25)"/>
</clipPath>
</defs>
</svg>
