<svg width="50" height="50" viewBox="0 0 50 50" fill="none" xmlns="http://www.w3.org/2000/svg">
<g id="mingcute:telegram-line" clip-path="url(#clip0_281_1450)">
<g id="Group">
<path id="Vector" fill-rule="evenodd" clip-rule="evenodd" d="M47.9535 10.6579C48.055 10.0417 47.9895 9.40962 47.7637 8.82739C47.5379 8.24517 47.16 7.73415 46.6696 7.34759C46.1791 6.96102 45.594 6.71306 44.9751 6.62953C44.3562 6.54599 43.7263 6.62995 43.1509 6.87265L3.34279 23.634C0.56786 24.8026 0.425854 28.816 3.34279 30.0265C6.23152 31.2301 9.16193 32.3312 12.1285 33.3276C14.8476 34.2262 17.8134 35.0573 20.1902 35.2924C20.8397 36.0699 21.6569 36.8195 22.4903 37.5039C23.7637 38.5515 25.2955 39.6294 26.8785 40.663C30.0491 42.7349 33.5667 44.716 35.9366 46.0057C38.7697 47.5421 42.1615 45.7729 42.669 42.6837L47.9535 10.6579ZM7.80549 26.807L43.0136 11.9825L38.0829 41.8735C35.7573 40.6094 32.4074 38.7168 29.4229 36.766C28.0475 35.8828 26.7195 34.9278 25.4444 33.9049C25.1037 33.6265 24.7729 33.3361 24.4527 33.0343L33.6738 23.8155C34.1106 23.379 34.3561 22.7869 34.3563 22.1693C34.3566 21.5518 34.1115 20.9595 33.6749 20.5226C33.2384 20.0858 32.6463 19.8403 32.0287 19.8401C31.4112 19.8399 30.8189 20.085 30.382 20.5215L20.2857 30.6178C18.577 30.399 16.1978 29.7658 13.5858 28.9045C11.6413 28.2566 9.7146 27.5564 7.80782 26.8046L7.80549 26.807Z" fill="url(#paint0_linear_281_1450)"/>
</g>
</g>
<defs>
<linearGradient id="paint0_linear_281_1450" x1="24.604" y1="6.59814" x2="24.604" y2="46.5692" gradientUnits="userSpaceOnUse">
<stop stop-color="#F2DC4C"/>
<stop offset="1" stop-color="#666666"/>
</linearGradient>
<clipPath id="clip0_281_1450">
<rect width="50" height="50" fill="white"/>
</clipPath>
</defs>
</svg>
