<svg width="50" height="51" viewBox="0 0 50 51" fill="none" xmlns="http://www.w3.org/2000/svg">
<path id="Vector" d="M39.6684 8.50033C37.4891 6.33234 36.2879 3.54866 36.2883 0.666992H26.4349V35.1114C26.3605 36.9759 25.4577 38.7422 23.9168 40.0378C22.3759 41.3334 20.3176 42.057 18.176 42.0559C13.648 42.0559 9.88521 38.8337 9.88521 34.8337C9.88521 30.0559 15.1786 26.4725 20.6314 27.9448V19.167C9.6301 17.8892 0 25.3337 0 34.8337C0 44.0837 8.80102 50.667 18.1441 50.667C28.1569 50.667 36.2883 43.5837 36.2883 34.8337V17.3614C40.2838 19.861 45.0809 21.2021 50 21.1948V12.6114C50 12.6114 44.0051 12.8614 39.6684 8.50033Z" fill="url(#paint0_linear_281_1477)"/>
<defs>
<linearGradient id="paint0_linear_281_1477" x1="25" y1="0.666992" x2="25" y2="50.667" gradientUnits="userSpaceOnUse">
<stop stop-color="#F2DC4C"/>
<stop offset="1" stop-color="#666666"/>
</linearGradient>
</defs>
</svg>
