<svg width="50" height="51" viewBox="0 0 50 51" fill="none" xmlns="http://www.w3.org/2000/svg">
<path id="Vector" d="M39.6684 8.58333C37.4891 6.41535 36.2879 3.63166 36.2883 0.75H26.4349V35.1944C26.3605 37.0589 25.4577 38.8252 23.9168 40.1208C22.3759 41.4164 20.3176 42.14 18.176 42.1389C13.648 42.1389 9.88521 38.9167 9.88521 34.9167C9.88521 30.1389 15.1786 26.5556 20.6314 28.0278V19.25C9.6301 17.9722 0 25.4167 0 34.9167C0 44.1667 8.80102 50.75 18.1441 50.75C28.1569 50.75 36.2883 43.6667 36.2883 34.9167V17.4444C40.2838 19.944 45.0809 21.2851 50 21.2778V12.6944C50 12.6944 44.0051 12.9444 39.6684 8.58333Z" fill="#FFFFF4"/>
</svg>
