<svg width="36" height="36" viewBox="0 0 36 36" fill="none" xmlns="http://www.w3.org/2000/svg">
<g clip-path="url(#clip0_260_1112)">
<path d="M35.5693 26.7953L29.7914 32.8328C29.6655 32.9648 29.5135 33.0691 29.3451 33.1391C29.1762 33.2122 28.9939 33.2489 28.8099 33.247H1.42094C1.29082 33.2471 1.16335 33.2102 1.05344 33.1405C0.944532 33.0717 0.858309 32.9722 0.805525 32.8547C0.753801 32.738 0.738061 32.6085 0.760316 32.4828C0.782391 32.3565 0.841822 32.2396 0.930941 32.1474L6.71323 26.1114C6.83867 25.9795 6.99014 25.8753 7.15802 25.8051C7.32633 25.7317 7.50817 25.6945 7.69178 25.6957H35.0793C35.2095 25.6961 35.337 25.7335 35.4468 25.8036C35.5557 25.8725 35.6419 25.9719 35.6947 26.0895C35.7464 26.2062 35.7622 26.3357 35.7399 26.4614C35.7178 26.5877 35.6584 26.7031 35.5693 26.7953ZM29.7914 14.6416C29.6655 14.5096 29.5135 14.4053 29.3451 14.3353C29.1763 14.2617 28.994 14.2245 28.8099 14.2259H1.42094C1.29082 14.2258 1.16335 14.2627 1.05344 14.3324C0.944314 14.4017 0.858069 14.5016 0.805525 14.6197C0.754092 14.736 0.738357 14.8649 0.760316 14.9901C0.782391 15.1165 0.841822 15.2333 0.930941 15.3255L6.71323 21.363C6.83867 21.4948 6.99014 21.5991 7.15802 21.6693C7.32644 21.7422 7.50827 21.7789 7.69178 21.7772H35.0793C35.2094 21.7773 35.3369 21.7404 35.4468 21.6707C35.5557 21.6019 35.6419 21.5025 35.6947 21.3849C35.7464 21.2682 35.7622 21.1387 35.7399 21.013C35.7178 20.8867 35.6584 20.7698 35.5693 20.6776L29.7914 14.6416ZM1.42094 10.3045H28.8114C28.9955 10.306 29.1778 10.2687 29.3466 10.1951C29.515 10.1251 29.667 10.0208 29.7928 9.88886L35.5707 3.85136C35.6599 3.75912 35.7193 3.64229 35.7414 3.51594C35.7629 3.39057 35.7466 3.26164 35.6947 3.14552C35.6419 3.02797 35.5557 2.92856 35.4468 2.85969C35.3369 2.79004 35.2094 2.75312 35.0793 2.75323H7.69178C7.50827 2.7515 7.32644 2.78826 7.15802 2.86115C6.99014 2.9313 6.83867 3.03559 6.71323 3.1674L0.9324 9.20636C0.843281 9.2986 0.783849 9.41543 0.761775 9.54177C0.739358 9.66685 0.754585 9.79577 0.805525 9.91219C0.858309 10.0297 0.944532 10.1292 1.05344 10.198C1.1632 10.2682 1.29068 10.3042 1.42094 10.3045Z" fill="url(#paint0_linear_260_1112)"/>
</g>
<defs>
<linearGradient id="paint0_linear_260_1112" x1="18.2505" y1="2.75317" x2="18.2505" y2="33.2471" gradientUnits="userSpaceOnUse">
<stop stop-color="#F2DC4C"/>
<stop offset="1" stop-color="#666666"/>
</linearGradient>
<clipPath id="clip0_260_1112">
<rect width="35" height="35" fill="white" transform="translate(0.75 0.5)"/>
</clipPath>
</defs>
</svg>
